<svg width="705" height="705" viewBox="0 0 705 705" fill="none" xmlns="http://www.w3.org/2000/svg">
<path d="M275.553 105.739C279.888 109.205 281.909 112.343 283.513 117.672C283.513 122.894 283.513 128.117 283.513 133.499C331.655 133.726 379.797 133.953 429.398 134.187C429.171 132.143 428.944 130.099 428.71 127.994C428.162 120.325 429.03 114.13 434.043 108.081C438.08 103.863 442.705 101.791 448.564 101.643C456.45 101.574 460.977 102.992 466.947 108.323C467.933 109.414 467.933 109.414 467.933 110.79C468.619 111.481 469.307 112.169 469.998 112.855C472.789 118.643 472.246 124.032 471.707 130.305C471.645 131.036 471.583 131.767 471.519 132.52C471.471 133.07 471.423 133.62 471.374 134.187C471.846 134.172 472.317 134.157 472.803 134.142C477.286 134.005 481.769 133.882 486.253 133.775C488.557 133.72 490.861 133.657 493.165 133.585C495.824 133.503 498.484 133.44 501.144 133.38C501.956 133.351 502.768 133.322 503.604 133.292C510.788 133.164 517.943 134.42 523.673 139.004C524.212 139.421 524.751 139.838 525.307 140.267C531.322 145.226 536.015 151.188 537.435 158.96C537.662 159.641 537.889 160.322 538.123 161.024C538.182 162.854 538.203 164.665 538.191 166.494C538.19 167.026 538.189 167.558 538.188 168.105C538.184 169.802 538.175 171.499 538.166 173.196C538.163 174.347 538.16 175.497 538.157 176.648C538.149 179.469 538.138 182.289 538.123 185.109C538.351 185.109 538.578 185.109 538.812 185.109C538.828 202.683 538.84 220.256 538.847 237.83C538.851 245.989 538.856 254.148 538.864 262.307C538.87 269.416 538.875 276.525 538.876 283.633C538.877 287.4 538.879 291.166 538.884 294.933C538.889 298.474 538.89 302.014 538.889 305.555C538.89 306.859 538.891 308.162 538.894 309.466C538.897 311.238 538.896 313.009 538.894 314.781C538.896 315.304 538.898 315.826 538.9 316.365C538.89 319.905 538.89 319.905 538.123 320.672C538.072 321.757 538.066 322.844 538.08 323.93C538.086 324.595 538.091 325.261 538.097 325.946C538.114 327.351 538.132 328.756 538.15 330.161C538.156 330.83 538.161 331.499 538.166 332.188C538.174 332.799 538.182 333.411 538.191 334.042C538.122 335.846 537.837 337.494 537.435 339.252C537.889 339.252 538.344 339.252 538.812 339.252C538.812 339.706 538.812 340.16 538.812 340.628C539.214 340.646 539.617 340.664 540.032 340.682C567.309 342.484 594.036 357.334 611.971 377.588C621.098 388.238 628.224 400.573 633.129 413.7C633.327 414.226 633.524 414.753 633.728 415.296C634.917 418.642 635.451 421.744 635.839 425.269C636.276 426.723 636.276 426.723 636.828 427.978C640.195 437.716 639.962 449.53 639.28 459.676C639.053 460.13 638.826 460.584 638.591 461.052C638.57 462.086 638.583 463.121 638.616 464.154C638.648 467.787 638.211 471.17 637.516 474.729C637.395 475.349 637.275 475.969 637.15 476.608C634.896 487.486 630.722 497.393 625.517 507.157C625.266 507.697 625.015 508.236 624.756 508.792C624.141 509.91 624.141 509.91 622.764 510.598C622.3 511.743 621.842 512.89 621.388 514.039C616.709 521.417 610.609 528.757 604.185 534.683C603.73 534.683 603.276 534.683 602.808 534.683C601.917 535.612 601.917 535.612 601.01 536.82C598.661 539.644 596.029 541.722 593.045 543.844C592.514 544.225 591.983 544.606 591.435 544.999C578.556 554.013 578.556 554.013 571.834 555.668C570.368 556.04 569.234 556.603 567.907 557.324C565.051 558.786 562.206 559.712 559.112 560.531C558.577 560.675 558.043 560.819 557.492 560.967C549.983 562.941 542.611 564.594 534.793 564.278C534.302 564.276 533.812 564.275 533.307 564.273C533.079 564.5 532.852 564.727 532.618 564.961C530.662 565.03 528.726 565.056 526.769 565.047C526.22 565.05 525.671 565.052 525.105 565.055C521.007 565.048 521.007 565.048 520.232 564.273C519.085 564.241 517.938 564.247 516.791 564.273C515.645 564.299 514.497 564.305 513.351 564.273C513.123 564.046 512.896 563.819 512.662 563.585C511.962 563.598 511.261 563.611 510.539 563.625C507.661 563.582 505.36 563.041 502.598 562.251C499.172 561.264 499.172 561.264 495.693 560.488C493.913 560.108 492.421 559.488 490.771 558.725C490.227 558.475 489.684 558.226 489.123 557.969C488.716 557.779 488.309 557.588 487.889 557.391C487.889 556.937 487.889 556.483 487.889 556.015C487.336 555.852 486.782 555.689 486.212 555.52C483.186 554.432 480.41 553.037 477.567 551.542C476.994 551.241 476.421 550.941 475.831 550.631C471.298 548.198 467.139 545.434 463.036 542.341C460.614 540.553 458.408 539.077 455.547 538.123C455.32 537.669 455.093 537.215 454.859 536.747C453.942 536.288 453.024 535.829 452.106 535.371C447.982 532.123 444.416 528.412 441.096 524.361C440.653 523.832 440.209 523.303 439.752 522.759C439.316 522.223 438.879 521.687 438.43 521.135C438.034 520.65 437.638 520.165 437.231 519.665C436.167 517.991 435.973 516.657 435.591 514.727C434.67 513.206 434.67 513.206 433.484 511.716C431.305 508.719 429.467 505.643 427.72 502.383C427.477 501.935 427.233 501.488 426.982 501.026C425.931 499.034 425.269 497.745 425.269 495.459C424.588 495.459 423.906 495.459 423.204 495.459C422.277 492.796 421.363 490.128 420.452 487.459C420.189 486.706 419.927 485.953 419.656 485.177C419.408 484.445 419.16 483.714 418.904 482.96C418.673 482.289 418.442 481.619 418.205 480.928C417.699 478.944 417.699 478.944 417.71 476.8C417.699 474.708 417.311 473.852 416.323 472.062C415.435 467.759 415.573 463.316 415.635 458.945C415.684 452.726 415.411 446.609 414.947 440.408C410.632 439.954 406.318 439.5 401.872 439.032C401.872 439.486 401.872 439.94 401.872 440.408C401.191 440.408 400.51 440.408 399.808 440.408C399.808 439.954 399.808 439.5 399.808 439.032C399.127 439.486 398.445 439.94 397.743 440.408C396.017 440.577 396.017 440.577 393.916 440.573C393.12 440.575 392.324 440.577 391.504 440.579C390.63 440.574 389.756 440.569 388.855 440.564C387.926 440.564 386.997 440.564 386.068 440.565C383.544 440.565 381.021 440.557 378.497 440.548C375.861 440.539 373.224 440.538 370.587 440.536C365.594 440.532 360.6 440.521 355.606 440.507C349.922 440.492 344.237 440.484 338.552 440.477C326.858 440.463 315.163 440.439 303.469 440.408C303.469 439.954 303.469 439.5 303.469 439.032C302.913 439.056 302.357 439.081 301.785 439.106C299.278 439.214 296.772 439.316 294.265 439.419C293.39 439.457 292.516 439.496 291.614 439.536C290.781 439.569 289.947 439.602 289.088 439.637C288.316 439.669 287.545 439.701 286.751 439.735C284.889 439.72 284.889 439.72 283.513 439.032C283.513 439.486 283.513 439.94 283.513 440.408C282.377 440.408 281.242 440.408 280.072 440.408C280.072 445.177 280.072 449.946 280.072 454.859C279.618 454.859 279.164 454.859 278.696 454.859C278.923 455.313 279.15 455.767 279.384 456.235C279.543 460.046 279.543 460.046 278.696 461.74C278.589 462.785 278.506 463.832 278.438 464.88C278.076 468.844 277.16 472.602 275.231 476.11C274.475 477.588 274.475 477.588 274.301 479.425C270.999 497.195 254.53 514.475 240.16 524.361C231.431 530.2 222.29 534.668 212.247 537.736C211.666 537.915 211.084 538.093 210.485 538.277C207.426 539.167 204.837 539.621 201.624 539.5C201.014 539.727 200.404 539.954 199.775 540.188C196.944 541.042 194.441 540.948 191.504 540.857C189.95 540.692 189.95 540.692 189.238 541.564C187.522 541.655 185.836 541.695 184.12 541.693C183.603 541.693 183.086 541.692 182.553 541.691C178.621 541.65 174.739 541.384 170.83 540.962C170.314 540.908 169.799 540.854 169.267 540.799C166.53 540.474 164.239 539.886 161.712 538.812C160.847 538.755 159.981 538.698 159.089 538.64C155.757 538.34 152.822 537.27 149.713 536.102C149.224 535.92 148.735 535.737 148.231 535.549C146.206 534.765 144.685 534.171 143.133 532.618C142.579 532.519 142.026 532.42 141.455 532.317C139.422 531.871 139.057 531.295 137.628 529.866C137.006 529.668 136.384 529.47 135.743 529.266C129.456 527.09 121.25 521.47 117.309 516.028C116.397 514.661 116.397 514.661 115.018 514.103C112.885 513.015 111.464 511.324 109.887 509.566C109.552 509.194 109.217 508.822 108.871 508.439C99.2923 497.65 93.1379 484.69 88.9418 470.987C88.7366 470.331 88.7366 470.331 88.5272 469.662C86.1148 461.385 85.7594 452.882 85.8022 444.322C85.803 443.825 85.8038 443.329 85.8046 442.817C85.8359 432.943 86.3301 423.267 90.8342 414.259C90.9184 413.656 91.0027 413.052 91.0895 412.431C91.591 409.765 92.528 407.43 93.6297 404.969C93.8437 404.489 94.0576 404.009 94.2781 403.514C98.0933 395.122 102.801 387.594 108.726 380.54C109.038 380.168 109.35 379.797 109.672 379.414C125.298 361.095 146.406 350.998 169.832 346.778C170.504 346.656 171.177 346.535 171.87 346.41C172.379 346.319 172.887 346.227 173.411 346.133C173.412 345.743 173.413 345.354 173.414 344.952C173.485 321.875 173.559 298.798 173.639 275.721C173.648 272.953 173.657 270.184 173.667 267.416C173.669 266.864 173.671 266.313 173.673 265.745C173.703 256.811 173.731 247.877 173.758 238.942C173.786 229.781 173.816 220.619 173.849 211.457C173.869 205.8 173.887 200.143 173.903 194.486C173.914 190.611 173.927 186.736 173.942 182.861C173.951 180.623 173.958 178.384 173.964 176.146C173.969 173.724 173.979 171.301 173.99 168.879C173.991 168.166 173.991 167.452 173.992 166.717C173.996 166.072 173.999 165.427 174.003 164.762C174.005 164.202 174.007 163.642 174.009 163.066C174.099 161.712 174.099 161.712 174.787 160.336C174.83 159.57 174.872 158.803 174.916 158.014C175.845 150.468 180.656 144.258 186.485 139.692C192.985 135.48 200.674 132.811 208.506 132.811C208.506 133.265 208.506 133.719 208.506 134.187C219.179 134.187 229.852 134.187 240.848 134.187C240.621 133.051 240.394 131.916 240.16 130.746C239.647 122.525 239.735 115.2 245.106 108.468C253.111 100.065 266.129 99.3099 275.553 105.739ZM253.923 117.672C251.448 121.506 251.568 124.952 251.608 129.362C251.608 130.09 251.608 130.818 251.607 131.568C251.609 133.104 251.616 134.641 251.627 136.178C251.643 138.516 251.641 140.853 251.637 143.19C251.64 144.688 251.645 146.186 251.651 147.683C251.651 148.376 251.65 149.069 251.649 149.782C251.698 154.641 251.862 159.457 254.439 163.691C256.78 165.902 258.919 167.009 262.094 167.561C265.113 167.078 267.546 165.915 269.75 163.777C272.193 159.409 272.136 155.331 272.137 150.404C272.142 149.584 272.147 148.763 272.153 147.918C272.16 146.188 272.162 144.458 272.159 142.729C272.158 140.09 272.187 137.453 272.217 134.814C272.221 133.13 272.223 131.445 272.223 129.76C272.234 128.975 272.245 128.191 272.257 127.383C272.215 122.554 271.532 119.339 268.374 115.607C266.422 113.701 265.023 113.22 262.309 113.156C258.483 113.274 256.248 114.674 253.923 117.672ZM442.472 116.983C440.048 121.326 440.097 125.329 440.11 130.23C440.106 131.037 440.102 131.843 440.099 132.674C440.094 134.375 440.095 136.075 440.101 137.775C440.107 140.371 440.087 142.967 440.065 145.563C440.064 147.218 440.065 148.874 440.067 150.53C440.059 151.303 440.051 152.076 440.043 152.872C440.091 158.307 440.898 161.389 444.709 165.411C447.174 166.868 449.248 167.358 452.106 167.217C455.354 166.093 457.121 164.579 458.988 161.712C460.756 157.752 460.586 153.802 460.595 149.546C460.602 148.383 460.602 148.383 460.609 147.197C460.616 145.56 460.619 143.923 460.619 142.286C460.622 139.791 460.647 137.297 460.673 134.802C460.677 133.208 460.68 131.614 460.681 130.02C460.691 129.279 460.701 128.538 460.711 127.774C460.679 122.382 459.633 118.745 456.192 114.575C451.153 112.001 446.098 112.723 442.472 116.983ZM192.162 151.39C180.423 165.839 186.485 185.662 186.485 203.001C298.438 203.001 410.391 203.001 525.737 203.001C528.931 176.044 528.931 176.044 519.434 151.906C513.114 145.895 506.05 144.868 497.515 144.995C496.386 145 496.386 145 495.234 145.004C492.857 145.016 490.481 145.042 488.104 145.068C486.481 145.078 484.858 145.088 483.235 145.096C479.281 145.119 475.328 145.153 471.374 145.197C471.36 145.588 471.345 145.978 471.33 146.381C471.26 148.175 471.183 149.97 471.105 151.764C471.071 152.685 471.071 152.685 471.036 153.625C470.718 160.705 469.337 167.302 464.493 172.723C458.799 177.204 452.93 177.434 445.913 176.851C441.344 175.788 437.24 173.603 434.215 169.97C429.126 161.616 429.89 156.021 429.398 145.197C381.256 145.197 333.114 145.197 283.513 145.197C282.831 151.328 282.15 157.46 281.448 163.777C278.253 170.168 276.67 172.854 270.868 176.077C265.231 177.905 257.554 177.944 252.116 175.475C247.073 172.425 243.642 168.135 242.224 162.4C241.506 158.767 241.319 155.166 241.149 151.476C241.119 150.871 241.09 150.266 241.059 149.643C240.987 148.161 240.917 146.679 240.848 145.197C236.049 145.162 231.25 145.138 226.45 145.121C224.819 145.115 223.188 145.105 221.557 145.093C219.206 145.076 216.856 145.069 214.505 145.063C213.419 145.052 213.419 145.052 212.311 145.041C205.054 145.04 197.746 146.412 192.162 151.39ZM410.479 264.909C405.09 270.863 399.362 276.492 393.678 282.162C391.76 284.077 389.845 285.996 387.931 287.914C386.698 289.147 385.464 290.379 384.231 291.612C383.666 292.178 383.101 292.744 382.519 293.328C380.124 295.713 377.724 298.053 375.155 300.25C371.209 303.649 367.588 307.39 363.917 311.078C363.123 311.874 362.329 312.669 361.534 313.465C359.46 315.541 357.388 317.62 355.317 319.699C353.196 321.827 351.073 323.953 348.95 326.079C344.798 330.239 340.648 334.4 336.499 338.564C333.944 337.37 332.342 335.923 330.365 333.892C329.728 333.244 329.091 332.597 328.435 331.93C327.768 331.245 327.101 330.561 326.435 329.876C325.126 328.53 323.812 327.188 322.495 325.849C321.914 325.253 321.333 324.656 320.735 324.041C319.45 322.582 319.45 322.582 317.919 322.736C317.656 322.124 317.656 322.124 317.386 321.499C316.458 319.831 315.532 318.966 314.062 317.761C310.975 315.148 308.149 312.332 305.318 309.447C304.362 308.473 303.404 307.501 302.444 306.53C302.029 306.107 301.614 305.683 301.186 305.247C298.189 302.424 295.787 302.368 291.827 302.426C288.298 303.016 286.49 304.989 284.201 307.597C283.633 308.123 283.065 308.648 282.48 309.189C280.813 312.176 280.667 314.605 281.448 317.92C282.527 319.523 282.527 319.523 284.01 321.016C284.571 321.612 285.133 322.209 285.711 322.823C286.353 323.484 286.996 324.143 287.641 324.801C287.986 325.153 288.331 325.506 288.686 325.869C291.355 328.589 294.055 331.277 296.759 333.962C297.564 334.763 298.369 335.565 299.173 336.366C300.647 337.835 302.122 339.302 303.598 340.769C305.393 342.554 307.185 344.342 308.974 346.133C309.541 346.701 310.109 347.269 310.694 347.853C312.414 349.574 314.135 351.294 315.855 353.015C316.373 353.53 316.891 354.045 317.425 354.576C318.984 356.142 320.529 357.719 322.07 359.302C323.095 360.346 324.12 361.39 325.145 362.433C325.659 362.964 326.172 363.495 326.701 364.042C327.202 364.55 327.704 365.058 328.22 365.581C328.67 366.042 329.12 366.503 329.584 366.978C331.865 368.879 333.76 369.517 336.714 369.573C343.34 367.664 348.616 360.268 353.424 355.458C354.288 354.596 355.152 353.734 356.016 352.872C358.349 350.545 360.68 348.216 363.011 345.886C364.468 344.429 365.926 342.972 367.385 341.516C372.476 336.431 377.566 331.344 382.653 326.256C387.391 321.518 392.132 316.783 396.876 312.051C400.955 307.981 405.032 303.908 409.107 299.833C411.537 297.402 413.969 294.972 416.403 292.545C418.691 290.264 420.974 287.98 423.256 285.694C424.092 284.857 424.93 284.021 425.769 283.186C426.916 282.044 428.059 280.898 429.201 279.751C430.16 278.792 430.16 278.792 431.139 277.813C433.501 275.214 435.375 272.983 436.021 269.492C435.418 265.996 433.766 264.107 431.462 261.492C431.098 261.024 430.733 260.555 430.357 260.073C428.741 258.169 427.459 256.91 425.027 256.208C418.329 255.689 414.615 260.269 410.479 264.909ZM448.931 390.099C441.098 399.741 435.315 410.739 431.462 422.516C431.194 423.322 430.926 424.127 430.65 424.957C424.849 443.675 425.369 466.115 432.15 484.449C432.34 484.962 432.53 485.476 432.726 486.005C437.377 498.31 443.58 508.776 452.794 518.167C453.535 519.034 454.268 519.907 454.988 520.791C457.22 523.423 459.785 525.594 462.428 527.801C462.996 528.292 463.564 528.783 464.149 529.288C484.911 546.882 511.517 554.622 538.461 552.435C541.85 552.04 545.14 551.343 548.446 550.51C548.972 550.381 549.499 550.251 550.042 550.118C562.525 546.96 574.59 541.759 584.917 533.995C585.489 533.566 586.061 533.138 586.651 532.696C604.698 518.685 618.07 500.482 624.141 478.256C624.275 477.795 624.409 477.335 624.547 476.861C628.921 461.353 628.768 442.037 624.141 426.645C623.978 426.089 623.816 425.532 623.648 424.959C618.79 408.751 610.384 394.756 598.68 382.604C598.21 382.084 597.741 381.563 597.258 381.027C592.254 375.65 586.128 371.6 580.1 367.465C579.482 367.038 578.865 366.61 578.229 366.17C564.722 357.466 547.822 353.167 531.93 352.326C531.215 352.281 531.215 352.281 530.484 352.235C499.287 350.453 468.782 366.844 448.931 390.099ZM118.36 388.798C102.305 408.105 96.6404 431.769 98.5918 456.429C99.902 467.009 103.604 476.554 108.726 485.825C109.081 486.477 109.437 487.129 109.804 487.801C112.248 492.07 115.2 495.828 118.36 499.588C118.741 500.062 119.123 500.537 119.516 501.026C122.811 505.007 126.65 508.155 130.746 511.286C131.395 511.79 132.045 512.294 132.714 512.813C151.826 526.875 175.328 531.827 198.657 528.361C208.542 526.637 217.699 523.105 226.397 518.167C227.073 517.786 227.749 517.405 228.446 517.012C247.083 505.786 260.581 486.99 265.962 465.976C268.206 456.376 268.852 446.797 268.374 436.967C268.352 436.492 268.33 436.017 268.307 435.528C267.154 415.51 256.486 397.41 242.913 383.293C242.528 382.857 242.144 382.421 241.749 381.973C229.509 368.518 208.347 360.317 190.58 359.059C162.535 357.854 137.25 367.772 118.36 388.798Z" fill="#EFEFEF" fill-opacity="0.81"/>
<path d="M237.921 378.675C239.62 380.18 241.272 381.723 242.913 383.293C243.368 383.705 243.824 384.118 244.294 384.543C259.135 398.453 267.814 419.95 268.484 440.018C269.07 464.971 260.721 487.114 243.469 505.222C227.061 521.653 205.628 529.145 182.743 529.393C161.835 529.3 142.398 521.482 126.617 507.846C125.83 507.212 125.83 507.212 125.026 506.566C121.093 503.34 118.01 499.479 114.919 495.459C114.5 494.922 114.082 494.384 113.65 493.83C100.429 475.982 96.0217 453.423 98.745 431.608C102.183 409.872 114.589 389.12 132.208 376.024C164.133 353.062 207.271 353.126 237.921 378.675ZM176.851 388.11C176.57 389.947 176.468 391.504 176.484 393.343C176.478 393.875 176.472 394.406 176.466 394.954C176.451 396.714 176.455 398.473 176.462 400.233C176.458 401.456 176.454 402.679 176.449 403.902C176.441 406.467 176.445 409.032 176.455 411.597C176.466 414.882 176.45 418.167 176.426 421.452C176.411 423.979 176.412 426.505 176.418 429.032C176.418 430.243 176.414 431.454 176.403 432.665C176.391 434.36 176.401 436.054 176.417 437.749C176.409 438.249 176.401 438.748 176.393 439.262C176.442 441.876 176.735 443.022 178.432 445.052C179.046 445.563 179.66 446.074 180.292 446.601C181.18 447.496 182.068 448.39 182.954 449.286C185.701 452.056 188.451 454.823 191.203 457.588C192.387 458.779 193.571 459.972 194.752 461.166C196.465 462.895 198.183 464.621 199.901 466.345C200.426 466.877 200.951 467.409 201.492 467.957C206.153 472.967 206.153 472.967 212.376 474.858C215.188 473.973 216.09 473.296 217.451 470.686C217.589 468.207 217.371 466.655 215.828 464.66C214.586 463.389 213.276 462.23 211.946 461.052C211.573 460.703 211.199 460.354 210.815 459.995C208.37 457.756 205.921 455.888 203.084 454.162C196.574 450.066 190.576 445.048 187.862 437.656C185.811 427.309 186.413 416.462 186.776 405.978C186.802 405.181 186.802 405.181 186.829 404.367C186.917 401.823 187.029 399.285 187.194 396.745C187.24 395.84 187.285 394.936 187.332 394.004C187.384 393.212 187.435 392.42 187.488 391.603C187.066 388.766 185.945 387.798 183.733 386.045C180.71 385.552 178.971 385.882 176.851 388.11Z" fill="white" fill-opacity="0.34"/>
<path d="M531.93 352.327C532.69 352.365 532.69 352.365 533.466 352.404C558.042 353.841 579.615 364.521 597.303 381.228C597.868 381.749 598.433 382.27 599.016 382.806C615.153 398.191 626.299 422.503 627.158 444.796C627.215 447.291 627.216 449.783 627.194 452.278C627.192 452.804 627.19 453.329 627.187 453.87C627.134 462.257 626.568 470.181 624.141 478.256C623.978 478.812 623.816 479.368 623.648 479.942C616.013 505.413 598.409 527.588 575.013 540.401C566.48 544.883 557.801 548.212 548.445 550.51C547.723 550.692 547.723 550.692 546.986 550.878C523.151 556.658 497.362 550.665 476.581 538.371C470.949 534.901 465.961 530.842 461.052 526.425C460.37 525.827 459.688 525.228 458.985 524.611C455.256 521.298 451.789 517.93 448.666 514.039C448.195 513.464 447.724 512.889 447.238 512.297C430.072 490.487 425.006 464.55 427.763 437.312C431.694 411.584 446.73 387.738 467.589 372.326C486.316 358.997 508.808 351.081 531.93 352.327ZM508.257 390.142C502.207 397.892 501.414 405.334 501.437 414.861C501.426 415.763 501.415 416.665 501.403 417.595C501.4 425.277 502.858 430.932 506.469 437.656C505.904 437.641 505.339 437.627 504.757 437.612C502.625 437.564 500.492 437.53 498.359 437.504C496.996 437.484 495.634 437.449 494.272 437.414C487.239 437.342 480.339 438.364 474.799 443.082C468.481 449.842 467.908 457.615 468.03 466.358C468.03 467.504 468.029 468.65 468.026 469.795C468.025 472.177 468.041 474.558 468.069 476.94C468.104 479.98 468.103 483.019 468.089 486.06C468.082 488.418 468.092 490.775 468.108 493.133C468.113 494.254 468.114 495.375 468.111 496.496C467.955 504.906 467.955 504.906 472.062 511.974C475.812 515.021 478.966 515.494 483.683 515.526C484.494 515.533 485.305 515.539 486.141 515.547C487.025 515.551 487.909 515.555 488.82 515.559C489.765 515.565 490.71 515.572 491.656 515.579C494.754 515.601 497.852 515.615 500.951 515.627C501.743 515.631 501.743 515.631 502.551 515.634C507.537 515.656 512.524 515.674 517.51 515.686C523.874 515.701 530.237 515.729 536.6 515.777C541.083 515.81 545.565 515.827 550.048 515.832C552.721 515.835 555.394 515.845 558.068 515.873C560.585 515.898 563.102 515.904 565.62 515.895C566.975 515.895 568.329 515.915 569.684 515.936C575.326 515.891 579.088 514.82 583.54 511.286C586.932 507.812 587.066 505.065 587.092 500.331C587.095 499.857 587.099 499.383 587.102 498.895C587.112 497.331 587.117 495.768 587.121 494.204C587.125 493.112 587.129 492.02 587.133 490.928C587.14 488.638 587.144 486.347 587.146 484.057C587.15 481.136 587.167 478.215 587.186 475.293C587.199 473.036 587.203 470.779 587.204 468.522C587.206 467.446 587.211 466.37 587.22 465.294C587.279 457.843 587.074 451.329 582.164 445.225C577.638 440.718 573.335 437.801 566.804 437.577C565.957 437.581 565.11 437.585 564.238 437.588C563.558 437.59 563.558 437.59 562.864 437.591C561.427 437.595 559.99 437.604 558.553 437.613C557.574 437.616 556.595 437.619 555.616 437.622C553.226 437.63 550.836 437.641 548.445 437.656C548.736 437.091 549.026 436.527 549.324 435.946C549.701 435.204 550.078 434.463 550.467 433.699C550.842 432.964 551.217 432.23 551.604 431.473C553.78 426.819 553.391 422.123 553.39 417.076C553.391 415.523 553.404 413.971 553.417 412.419C553.456 402.91 552.18 395.578 545.607 388.282C540.636 383.599 534.067 380.989 527.272 381.129C519.682 381.621 513.485 384.555 508.257 390.142Z" fill="#B0B0B0" fill-opacity="0.6"/>
<path d="M214.505 145.062C215.261 145.064 216.017 145.066 216.796 145.068C219.194 145.076 221.591 145.093 223.989 145.111C225.621 145.118 227.254 145.124 228.886 145.13C232.874 145.145 236.861 145.168 240.848 145.197C240.907 146.531 240.907 146.531 240.967 147.892C241.023 149.075 241.079 150.258 241.136 151.441C241.161 152.025 241.186 152.61 241.212 153.212C241.589 160.913 242.761 167.452 248.633 172.851C252.603 176.341 256.684 177.209 261.793 177.109C262.311 177.102 262.828 177.094 263.362 177.087C269.219 176.918 272.876 175.326 277.416 171.556C283.552 163.95 282.459 154.683 283.513 145.197C331.655 145.197 379.797 145.197 429.398 145.197C429.625 150.193 429.852 155.189 430.086 160.336C431.581 166.203 433.857 170.968 439.093 174.335C444.87 177.347 451.851 178.028 458.168 176.332C459.676 175.684 461.037 174.967 462.428 174.099C463.053 173.73 463.677 173.361 464.321 172.98C469.816 167.18 470.849 159.377 471.116 151.734C471.143 151.103 471.169 150.471 471.197 149.82C471.261 148.279 471.32 146.738 471.374 145.197C476.11 145.126 480.846 145.079 485.583 145.046C487.191 145.032 488.798 145.013 490.406 144.989C512.141 144.673 512.141 144.673 518.512 150.831C522.161 154.428 524.495 158.121 525.737 163.088C525.737 176.259 525.737 189.43 525.737 203C413.784 203 301.831 203 186.485 203C186.485 158.377 186.485 158.377 192.162 151.39C198.429 145.803 206.471 144.984 214.505 145.062Z" fill="#353A3B"/>
<path d="M528.36 381.056C535.208 381.188 540.93 384.227 545.83 388.849C552.831 396.263 553.413 403.692 553.466 413.535C553.473 414.556 553.488 415.578 553.508 416.599C553.666 424.553 552.706 430.779 548.445 437.655C549.335 437.639 549.335 437.639 550.242 437.623C552.47 437.587 554.698 437.561 556.925 437.542C557.884 437.532 558.843 437.518 559.802 437.5C567.182 437.365 573.46 437.685 579.412 442.472C584.855 447.94 587.05 452.683 587.092 460.409C587.095 460.885 587.099 461.361 587.102 461.852C587.112 463.419 587.117 464.985 587.121 466.552C587.125 467.646 587.129 468.741 587.133 469.835C587.14 472.127 587.144 474.418 587.146 476.71C587.15 479.639 587.167 482.567 587.186 485.496C587.199 487.756 587.203 490.015 587.204 492.275C587.206 493.355 587.211 494.434 587.22 495.513C587.232 497.026 587.231 498.539 587.226 500.053C587.23 501.341 587.23 501.341 587.234 502.656C586.888 505.988 586.02 508.793 583.608 511.235C583.146 511.55 582.683 511.865 582.207 512.189C581.747 512.513 581.286 512.837 580.812 513.17C577.954 514.942 576.09 515.587 572.672 515.59C571.858 515.594 571.044 515.598 570.205 515.602C569.314 515.599 568.423 515.596 567.505 515.593C566.556 515.595 565.606 515.597 564.656 515.6C562.079 515.607 559.501 515.604 556.923 515.6C554.224 515.596 551.525 515.6 548.826 515.602C544.292 515.604 539.758 515.601 535.224 515.594C529.986 515.587 524.748 515.589 519.51 515.597C515.011 515.603 510.511 515.604 506.012 515.6C503.326 515.598 500.639 515.598 497.953 515.603C495.426 515.607 492.899 515.604 490.372 515.596C489.006 515.593 487.639 515.597 486.272 515.602C485.454 515.598 484.636 515.594 483.793 515.59C483.085 515.589 482.377 515.589 481.647 515.588C478.432 515.312 475.609 514.339 472.965 512.49C472.387 512.102 472.387 512.102 471.796 511.705C468.806 508.722 468.356 505.42 468.311 501.353C468.303 500.857 468.295 500.362 468.286 499.852C468.263 498.223 468.256 496.594 468.251 494.964C468.242 493.821 468.234 492.677 468.225 491.534C468.209 489.137 468.203 486.74 468.201 484.343C468.198 481.296 468.162 478.251 468.119 475.205C468.091 472.841 468.084 470.477 468.084 468.113C468.08 466.991 468.069 465.87 468.049 464.749C467.916 456.567 468.943 449.347 474.799 443.082C481.153 437.67 489.004 437.277 496.964 437.483C497.891 437.497 498.818 437.51 499.745 437.521C501.987 437.553 504.228 437.598 506.469 437.655C506.237 437.223 506.004 436.79 505.765 436.344C501.957 429.036 501.417 423.215 501.437 415.033C501.426 414.131 501.415 413.229 501.403 412.299C501.399 402.89 503.604 395.375 509.996 388.282C515.228 383.375 521.39 381.513 528.36 381.056ZM516.533 397.227C513 403.206 512.23 407.933 512.318 414.904C512.308 415.737 512.297 416.571 512.286 417.429C512.312 423.324 512.979 428.44 516.767 433.14C521.018 436.507 523.97 438.007 529.481 437.868C534.062 437.315 537.056 434.955 539.965 431.513C543.275 426.328 543.276 421.829 543.241 415.764C543.255 414.924 543.269 414.085 543.283 413.22C543.279 406.028 541.924 400.168 536.747 394.991C530.007 390.223 522.376 391.692 516.533 397.227ZM532.618 447.978C532.618 448.432 532.618 448.886 532.618 449.354C533.3 449.971 533.3 449.971 533.995 450.601C535.371 452.106 535.371 452.106 535.672 453.827C535.299 455.956 534.947 456.87 533.306 458.3C531.163 458.868 530.518 458.996 528.489 458.3C526.636 456.915 525.001 455.414 523.347 453.797C522.773 453.239 522.199 452.681 521.608 452.106C521.032 451.513 520.456 450.92 519.862 450.309C517.04 447.99 514.168 448.169 510.646 448.209C509.667 448.204 509.667 448.204 508.667 448.199C507.289 448.196 505.912 448.203 504.534 448.217C502.437 448.235 500.343 448.217 498.246 448.195C496.903 448.198 495.56 448.202 494.217 448.209C493.286 448.198 493.286 448.198 492.335 448.188C487.989 448.267 484.982 449.191 481.696 452.106C477.914 456.509 478.554 461.707 478.602 467.256C478.602 468.263 478.601 469.269 478.599 470.275C478.598 472.376 478.607 474.477 478.623 476.578C478.642 479.27 478.64 481.963 478.631 484.655C478.627 486.73 478.632 488.804 478.641 490.879C478.644 491.872 478.644 492.865 478.641 493.858C478.639 495.243 478.652 496.628 478.666 498.013C478.669 498.801 478.673 499.589 478.677 500.4C478.785 502.306 478.785 502.306 479.759 503.478C481.473 504.75 482.614 504.663 484.738 504.662C485.901 504.67 485.901 504.67 487.086 504.677C487.937 504.672 488.787 504.666 489.663 504.661C490.559 504.663 491.454 504.666 492.376 504.669C494.833 504.675 497.29 504.669 499.747 504.659C502.317 504.652 504.887 504.654 507.457 504.656C511.775 504.656 516.092 504.649 520.409 504.636C525.4 504.622 530.392 504.619 535.383 504.623C540.183 504.627 544.983 504.623 549.784 504.616C551.827 504.613 553.87 504.612 555.914 504.613C558.767 504.615 561.621 504.605 564.474 504.594C565.323 504.595 566.172 504.597 567.047 504.599C567.824 504.594 568.6 504.589 569.401 504.584C570.075 504.583 570.75 504.581 571.445 504.58C573.297 504.397 574.415 504.034 575.971 503.029C576.917 501.136 576.768 499.595 576.792 497.477C576.803 496.6 576.814 495.722 576.825 494.818C576.833 493.854 576.841 492.891 576.847 491.927C576.853 491.199 576.853 491.199 576.858 490.456C576.877 487.884 576.89 485.312 576.9 482.741C576.909 480.618 576.928 478.496 576.956 476.373C576.991 473.806 577.007 471.239 577.012 468.672C577.017 467.697 577.027 466.722 577.044 465.747C577.169 458.666 577.169 458.666 574.202 452.425C571.732 449.897 568.368 448.088 564.809 447.895C563.917 447.897 563.917 447.897 563.007 447.899C562.333 447.899 561.658 447.899 560.962 447.9C560.235 447.903 559.508 447.907 558.759 447.91C558.014 447.911 557.268 447.912 556.5 447.913C554.116 447.917 551.733 447.926 549.349 447.935C547.734 447.938 546.119 447.941 544.503 447.944C540.542 447.952 536.58 447.963 532.618 447.978Z" fill="#434849"/>
<path d="M532.618 447.977C537.307 447.907 541.995 447.859 546.684 447.826C548.278 447.812 549.871 447.794 551.464 447.77C553.761 447.736 556.058 447.721 558.356 447.709C559.062 447.694 559.767 447.68 560.494 447.666C565.026 447.664 568.628 448.332 572.53 450.73C575.759 454.041 576.831 456.718 576.837 461.309C576.842 462.198 576.846 463.086 576.85 464.002C576.848 464.969 576.845 465.936 576.842 466.904C576.843 467.898 576.844 468.892 576.846 469.886C576.848 471.966 576.845 474.047 576.839 476.128C576.831 478.795 576.835 481.462 576.843 484.129C576.848 486.181 576.847 488.232 576.843 490.284C576.842 491.267 576.844 492.251 576.847 493.234C576.85 494.608 576.844 495.982 576.837 497.355C576.836 498.137 576.835 498.919 576.834 499.724C576.659 501.652 576.659 501.652 575.283 503.717C573.162 504.423 571.706 504.495 569.483 504.501C568.708 504.505 567.932 504.509 567.133 504.513C566.281 504.514 565.43 504.515 564.552 504.516C563.208 504.521 563.208 504.521 561.836 504.526C559.376 504.535 556.917 504.539 554.457 504.542C552.921 504.544 551.385 504.547 549.849 504.55C545.045 504.56 540.241 504.566 535.437 504.569C529.888 504.572 524.339 504.584 518.789 504.604C514.502 504.619 510.214 504.626 505.926 504.627C503.364 504.628 500.802 504.632 498.24 504.644C495.385 504.657 492.53 504.654 489.674 504.65C488.823 504.656 487.971 504.663 487.094 504.669C485.93 504.663 485.93 504.663 484.743 504.658C483.73 504.659 483.73 504.659 482.696 504.661C481.008 504.405 481.008 504.405 479.759 503.478C478.493 501.712 478.671 500.172 478.655 498.024C478.644 497.133 478.633 496.241 478.621 495.323C478.621 494.348 478.62 493.372 478.621 492.397C478.616 491.395 478.611 490.393 478.605 489.391C478.596 487.288 478.595 485.185 478.599 483.083C478.603 480.399 478.582 477.717 478.554 475.033C478.536 472.962 478.534 470.89 478.537 468.818C478.536 467.83 478.529 466.842 478.517 465.853C478.41 456.257 478.41 456.257 481.34 452.459C485.153 448.658 488.861 448.235 494.101 448.227C495.08 448.216 495.08 448.216 496.078 448.205C497.451 448.194 498.825 448.19 500.198 448.193C502.289 448.192 504.377 448.151 506.468 448.108C507.808 448.102 509.148 448.099 510.488 448.098C511.107 448.082 511.725 448.066 512.363 448.049C516.68 448.111 518.807 449.273 521.872 452.3C522.239 452.69 522.606 453.08 522.984 453.482C523.763 454.237 523.763 454.237 524.557 455.007C524.961 455.398 525.364 455.789 525.78 456.192C527.756 457.919 528.417 458.286 531.113 458.773C533.313 458.483 533.313 458.483 534.64 457.138C535.518 455.228 535.734 454.183 535.371 452.106C534.038 450.601 534.038 450.601 532.618 449.354C532.618 448.899 532.618 448.445 532.618 447.977ZM499.588 474.127C498.594 476.114 498.64 477.427 498.9 479.632C500.717 481.975 501.746 482.962 504.695 483.509C505.596 483.512 506.497 483.515 507.425 483.518C507.924 483.524 508.424 483.53 508.938 483.536C510.582 483.551 512.225 483.541 513.869 483.529C515.015 483.532 516.161 483.535 517.306 483.539C519.704 483.544 522.101 483.537 524.499 483.521C527.571 483.501 530.643 483.513 533.715 483.533C536.08 483.546 538.444 483.542 540.808 483.533C541.941 483.531 543.074 483.533 544.207 483.541C545.79 483.55 547.372 483.537 548.955 483.518C549.855 483.515 550.756 483.512 551.683 483.509C554.054 483.267 554.054 483.267 555.618 481.456C556.946 479.224 557.138 478.058 556.703 475.503C555.411 473.732 554.551 472.912 552.424 472.341C550.201 472.017 548.063 471.964 545.815 471.951C545.128 471.946 545.128 471.946 544.427 471.941C542.921 471.931 541.415 471.926 539.908 471.922C538.857 471.918 537.806 471.914 536.754 471.911C534.554 471.903 532.353 471.899 530.153 471.897C527.337 471.893 524.521 471.877 521.705 471.857C519.535 471.844 517.365 471.841 515.195 471.84C514.157 471.837 513.119 471.832 512.08 471.823C510.628 471.811 509.176 471.812 507.723 471.817C506.898 471.814 506.072 471.812 505.222 471.809C502.81 472.087 501.517 472.679 499.588 474.127Z" fill="#F6F6F6" fill-opacity="0.62"/>
<path d="M426.645 256.675C430.827 259.804 435.007 263.962 436.021 269.234C434.841 276.311 426.926 282.051 421.996 286.964C421.111 287.85 420.227 288.737 419.343 289.624C416.956 292.017 414.565 294.405 412.173 296.793C409.666 299.297 407.162 301.804 404.658 304.31C400.457 308.514 396.253 312.714 392.047 316.913C387.185 321.768 382.327 326.628 377.472 331.491C373.298 335.671 369.122 339.848 364.943 344.023C362.45 346.515 359.957 349.007 357.466 351.502C355.128 353.844 352.787 356.183 350.443 358.519C349.583 359.377 348.724 360.237 347.866 361.097C346.697 362.271 345.524 363.439 344.349 364.607C343.84 365.121 343.84 365.121 343.32 365.645C340.649 368.286 339.083 369.509 335.295 369.573C331.546 368.958 329.456 366.643 326.865 364.024C325.921 363.093 325.921 363.093 324.957 362.143C323.055 360.262 321.175 358.359 319.296 356.455C318.15 355.307 317.003 354.16 315.855 353.014C308.286 345.445 308.286 345.445 306.767 343.925C304.892 342.051 303.013 340.18 301.133 338.31C299.172 336.358 297.212 334.404 295.253 332.45C294.218 331.419 293.183 330.388 292.147 329.359C290.648 327.868 289.151 326.375 287.655 324.881C287.191 324.421 286.727 323.961 286.249 323.487C285.82 323.057 285.39 322.627 284.947 322.185C284.381 321.62 284.381 321.62 283.803 321.045C281.322 318.355 281.032 316.375 281.093 312.852C281.735 309.573 283.88 307.725 286.265 305.533C286.762 304.965 287.259 304.397 287.77 303.812C291.119 302.026 294.286 301.974 297.963 302.78C300.266 304.168 302.004 305.92 303.826 307.886C305.463 309.633 307.17 311.311 308.868 313C309.785 313.914 310.697 314.833 311.605 315.757C312.026 316.185 312.448 316.613 312.882 317.054C313.256 317.436 313.631 317.818 314.016 318.212C315.179 319.356 315.179 319.356 316.686 320.382C317.093 320.705 317.5 321.027 317.919 321.36C317.919 321.814 317.919 322.268 317.919 322.736C318.303 322.895 318.686 323.054 319.081 323.218C321.096 324.351 322.478 325.764 324.102 327.408C324.419 327.727 324.736 328.046 325.062 328.374C326.068 329.387 327.069 330.406 328.069 331.424C328.753 332.114 329.436 332.804 330.12 333.494C331.792 335.18 333.458 336.871 335.123 338.563C337.824 337.47 339.632 335.611 341.638 333.57C342.189 333.017 342.189 333.017 342.751 332.454C343.964 331.236 345.172 330.014 346.38 328.792C347.227 327.942 348.074 327.091 348.921 326.241C351.153 324 353.38 321.755 355.607 319.51C359.16 315.927 362.718 312.349 366.278 308.773C367.515 307.529 368.749 306.283 369.983 305.037C373.418 301.577 376.865 298.18 380.578 295.014C383.436 292.495 386.091 289.757 388.781 287.061C389.421 286.422 390.06 285.783 390.718 285.126C392.062 283.783 393.405 282.439 394.747 281.093C396.455 279.381 398.166 277.673 399.878 275.965C401.528 274.318 403.176 272.668 404.824 271.018C405.432 270.411 406.041 269.804 406.668 269.178C409.804 266.03 412.769 262.822 415.635 259.428C418.952 256.488 422.351 255.411 426.645 256.675Z" fill="#474C4D"/>
<path d="M535.371 394.303C539.053 396.582 541.348 400.345 542.628 404.455C543.349 408.026 543.158 411.747 543.199 415.377C543.237 416.65 543.237 416.65 543.276 417.949C543.335 424.016 542.512 428.922 538.258 433.481C534.53 436.925 531.17 437.995 526.121 437.868C521.571 437.319 518.565 434.968 515.638 431.58C512.389 426.252 512.285 421.229 512.275 415.119C512.25 414.294 512.225 413.469 512.199 412.619C512.169 406.611 513.407 402.066 516.791 397.055C522.17 391.642 528.753 390.806 535.371 394.303Z" fill="white" fill-opacity="0.76"/>
<path d="M183.733 386.045C185.933 387.79 187.071 388.745 187.46 391.576C187.396 392.355 187.333 393.135 187.267 393.938C187.208 394.83 187.149 395.721 187.088 396.64C187.051 397.115 187.013 397.59 186.974 398.079C186.78 400.639 186.675 403.203 186.566 405.769C186.543 406.305 186.52 406.842 186.496 407.394C185.113 428.826 185.113 428.826 194.23 447.378C198.803 452.004 203.956 455.914 209.349 459.526C212.645 461.789 215.929 464.145 217.451 467.934C217.396 470.59 217.058 471.725 215.301 473.74C212.662 475.174 211.397 474.824 208.506 474.127C206.617 472.791 206.617 472.791 204.767 470.987C204.421 470.656 204.076 470.324 203.721 469.983C202.552 468.852 201.399 467.706 200.248 466.557C199.372 465.694 198.495 464.831 197.619 463.969C194.794 461.178 191.994 458.364 189.195 455.547C188.222 454.571 187.25 453.595 186.277 452.62C184.156 450.492 182.036 448.363 179.918 446.232C178.941 445.197 178.941 445.197 177.772 444.392C176.301 442.425 176.559 440.267 176.573 437.906C176.568 437.372 176.564 436.838 176.559 436.288C176.546 434.521 176.549 432.756 176.553 430.989C176.55 429.763 176.546 428.537 176.542 427.31C176.536 424.739 176.537 422.169 176.544 419.598C176.552 416.3 176.538 413.003 176.518 409.706C176.506 407.173 176.506 404.641 176.51 402.108C176.51 400.892 176.506 399.676 176.497 398.46C176.487 396.761 176.494 395.064 176.506 393.365C176.499 392.861 176.493 392.357 176.486 391.837C176.518 389.607 176.554 388.423 178.123 386.771C180.196 385.755 181.451 385.673 183.733 386.045Z" fill="#484D4E"/>
<path d="M454.171 113.542C457.561 115.274 459.135 118.296 460.364 121.8C460.742 124.529 460.734 127.22 460.705 129.972C460.706 130.745 460.707 131.519 460.708 132.315C460.707 133.944 460.699 135.573 460.685 137.201C460.665 139.684 460.671 142.166 460.68 144.648C460.676 146.236 460.67 147.824 460.662 149.412C460.664 150.149 460.666 150.886 460.668 151.645C460.603 156.91 460.139 161.078 456.45 165.11C453.55 166.915 452.08 167.217 448.666 167.217C445.038 166.008 443.286 164.028 441.096 161.024C440.409 158.962 440.309 157.557 440.286 155.401C440.277 154.675 440.269 153.949 440.259 153.201C440.254 152.416 440.249 151.632 440.244 150.823C440.238 150.014 440.233 149.205 440.227 148.372C440.218 146.658 440.21 144.944 440.205 143.23C440.193 140.617 440.163 138.005 440.132 135.392C440.126 133.726 440.12 132.06 440.115 130.394C440.103 129.616 440.091 128.838 440.078 128.036C440.094 122.493 440.981 118.936 444.58 114.575C447.725 112.968 450.714 113.042 454.171 113.542Z" fill="white" fill-opacity="0.37"/>
<path d="M265.621 113.542C268.869 115.132 270.559 117.815 271.814 121.112C272.125 123.942 272.12 126.756 272.113 129.601C272.116 130.422 272.12 131.243 272.124 132.089C272.128 133.823 272.127 135.557 272.121 137.291C272.115 139.936 272.135 142.579 272.157 145.224C272.158 146.912 272.158 148.6 272.156 150.288C272.163 151.074 272.171 151.861 272.179 152.671C272.14 157.126 271.803 160.813 269.062 164.465C266.579 166.673 264.441 167.44 261.105 167.26C257.832 166.713 256.196 165.473 253.923 163.088C250.043 157.546 251.652 147.439 251.617 141.052C251.606 139.487 251.587 137.922 251.561 136.357C251.523 134.086 251.508 131.816 251.498 129.544C251.483 128.85 251.467 128.156 251.451 127.441C251.467 121.842 253.179 118.718 256.804 114.575C259.728 113.015 262.383 112.946 265.621 113.542Z" fill="white" fill-opacity="0.37"/>
<path d="M507.478 471.962C507.935 471.96 508.391 471.957 508.862 471.955C510.376 471.949 511.89 471.947 513.404 471.946C514.457 471.944 515.51 471.942 516.562 471.94C518.772 471.935 520.982 471.934 523.192 471.935C526.018 471.935 528.844 471.925 531.67 471.913C533.846 471.906 536.022 471.904 538.198 471.905C539.239 471.904 540.281 471.901 541.322 471.896C542.783 471.889 544.244 471.891 545.704 471.895C546.95 471.893 546.95 471.893 548.22 471.892C551.08 472.104 553.527 472.697 555.929 474.299C557.134 476.172 557.008 477.452 556.703 479.632C555.62 481.459 555.62 481.459 553.951 483.072C551.683 483.509 551.683 483.509 548.955 483.517C548.208 483.527 548.208 483.527 547.445 483.536C545.801 483.551 544.158 483.541 542.513 483.529C541.368 483.532 540.223 483.535 539.078 483.539C536.679 483.544 534.281 483.537 531.882 483.521C528.81 483.501 525.739 483.513 522.668 483.533C520.303 483.546 517.939 483.542 515.575 483.533C514.443 483.53 513.31 483.533 512.178 483.541C510.593 483.55 509.01 483.537 507.425 483.517C506.524 483.515 505.623 483.512 504.695 483.509C501.747 482.962 500.725 481.965 498.9 479.632C498.513 477.524 498.513 477.524 498.9 475.503C501.555 472.228 503.38 471.975 507.478 471.962Z" fill="#44494A"/>
<path d="M282.825 124.553C283.279 124.553 283.733 124.553 284.201 124.553C284.201 127.278 284.201 130.003 284.201 132.81C331.662 132.81 379.122 132.81 428.022 132.81C428.022 130.994 428.022 129.177 428.022 127.305C428.703 127.646 428.703 127.646 429.398 127.993C429.398 130.037 429.398 132.081 429.398 134.187C410.389 134.203 391.379 134.215 372.37 134.222C363.545 134.226 354.719 134.231 345.893 134.239C338.204 134.245 330.515 134.25 322.825 134.251C318.751 134.252 314.677 134.254 310.603 134.259C306.773 134.264 302.943 134.266 299.113 134.264C297.703 134.265 296.293 134.266 294.883 134.269C292.966 134.272 291.05 134.271 289.134 134.269C288.568 134.271 288.003 134.273 287.42 134.275C283.591 134.265 283.591 134.265 282.825 133.499C282.775 131.994 282.767 130.488 282.782 128.983C282.788 128.159 282.794 127.334 282.8 126.485C282.808 125.848 282.816 125.21 282.825 124.553Z" fill="#2B3132"/>
<path d="M471.374 127.306C471.828 127.306 472.282 127.306 472.75 127.306C472.75 129.122 472.75 130.939 472.75 132.811C483.423 132.811 494.096 132.811 505.093 132.811C504.866 133.265 504.639 133.719 504.405 134.187C493.505 134.187 482.605 134.187 471.374 134.187C471.374 131.916 471.374 129.645 471.374 127.306Z" fill="#2E3336"/>
<path d="M457.611 538.124C458.429 538.668 459.246 539.213 460.063 539.758C460.633 540.136 461.204 540.514 461.791 540.903C463.221 541.861 464.641 542.834 466.054 543.817C472.809 548.479 479.877 552.323 487.201 556.015C484.698 556.85 483.882 556.289 481.6 555.156C481.135 554.914 480.67 554.673 480.191 554.424C479.707 554.176 479.223 553.929 478.724 553.674C471.026 549.663 463.583 545.087 456.923 539.5C457.15 539.046 457.377 538.591 457.611 538.124Z" fill="#383D3E"/>
<path d="M240.848 132.123C240.848 132.804 240.848 133.485 240.848 134.187C230.175 134.187 219.502 134.187 208.506 134.187C208.506 133.733 208.506 133.279 208.506 132.811C212.89 132.712 217.275 132.615 221.66 132.517C223.153 132.483 224.645 132.45 226.138 132.417C228.28 132.369 230.422 132.321 232.564 132.273C233.234 132.258 233.904 132.243 234.595 132.227C235.214 132.214 235.834 132.2 236.473 132.186C237.02 132.174 237.567 132.161 238.131 132.149C239.036 132.131 239.942 132.123 240.848 132.123Z" fill="#2D3334"/>
<path d="M423.893 495.459C424.347 495.459 424.801 495.459 425.269 495.459C425.781 496.519 425.781 496.519 426.304 497.601C428.814 502.74 431.382 507.687 434.596 512.434C435.609 514.068 436.308 515.677 436.967 517.479C434.597 516.689 434.405 516.311 433.166 514.256C432.849 513.734 432.531 513.212 432.203 512.675C431.709 511.838 431.709 511.838 431.204 510.985C430.867 510.423 430.529 509.86 430.182 509.281C423.893 498.707 423.893 498.707 423.893 495.459Z" fill="#2D3238"/>
</svg>
