<svg width="705" height="705" viewBox="0 0 705 705" fill="none" xmlns="http://www.w3.org/2000/svg">
<path d="M109.414 182.356C257.019 182.356 404.625 182.356 556.703 182.356C556.703 343.381 556.703 343.381 527.156 382.862C517.629 389.824 509.587 395.561 499.702 401.308C495.579 403.915 493.124 407.331 490.642 411.506C490.211 412.144 489.78 412.781 489.336 413.438C484.555 420.705 481.375 428.317 477.567 436.279C441.461 436.279 405.354 436.279 368.153 436.279C366.791 433.781 365.428 431.283 364.025 428.71C359.266 423.864 354.154 421.803 347.337 421.613C341.435 421.692 337.204 424.068 332.916 428.013C331.193 429.946 330.022 432.031 328.868 434.338C328.241 435.591 328.241 435.591 327.553 436.279C325.69 436.345 323.843 436.366 321.979 436.357C321.395 436.357 320.811 436.357 320.21 436.358C318.27 436.357 316.33 436.352 314.39 436.346C313.049 436.345 311.707 436.344 310.366 436.343C306.829 436.341 303.291 436.334 299.754 436.326C296.147 436.319 292.54 436.316 288.933 436.313C281.85 436.305 274.768 436.294 267.685 436.279C267.647 435.147 267.647 435.147 267.607 433.992C267.562 432.991 267.516 431.99 267.47 430.989C267.455 430.493 267.439 429.996 267.423 429.485C267.269 426.423 266.931 424.293 264.933 421.828C262.913 420.439 261.247 420.276 258.827 420.263C258.163 420.256 257.5 420.25 256.816 420.243C256.103 420.244 255.391 420.244 254.656 420.245C253.92 420.242 253.184 420.239 252.425 420.236C250.868 420.232 249.312 420.232 247.755 420.235C245.375 420.237 242.996 420.221 240.615 420.203C239.103 420.202 237.59 420.201 236.077 420.202C235.01 420.192 235.01 420.192 233.922 420.183C229.113 420.17 229.113 420.17 225.021 422.516C222.585 425.793 222.585 425.793 222.956 436.279C203.654 436.279 184.352 436.279 164.465 436.279C163.329 434.008 162.194 431.737 161.024 429.398C156.571 424.796 152.08 421.746 145.541 421.527C139.38 421.794 134.568 423.797 130.058 428.021C127.872 430.534 126.299 433.104 125.241 436.279C120.41 436.06 116.819 435.337 113.217 431.86C110.208 428.456 109.241 425.533 109.244 421.052C109.242 420.199 109.239 419.345 109.236 418.466C109.24 417.522 109.244 416.578 109.248 415.633C109.248 414.631 109.246 413.628 109.245 412.626C109.242 409.865 109.247 407.104 109.254 404.344C109.26 401.323 109.258 398.303 109.257 395.282C109.256 389.417 109.263 383.551 109.271 377.686C109.281 370.903 109.282 364.119 109.284 357.336C109.291 339.423 109.31 321.51 109.328 303.598C109.356 263.588 109.384 223.578 109.414 182.356ZM442.472 211.258C440.283 215.001 440.107 218.266 440.13 222.536C440.125 223.165 440.12 223.795 440.115 224.443C440.103 226.513 440.106 228.583 440.109 230.652C440.106 232.098 440.103 233.544 440.099 234.989C440.092 238.015 440.094 241.041 440.101 244.067C440.109 247.936 440.095 251.805 440.075 255.675C440.062 258.659 440.062 261.643 440.066 264.628C440.066 266.054 440.062 267.48 440.054 268.907C440.043 270.904 440.051 272.901 440.063 274.899C440.056 275.483 440.049 276.067 440.042 276.668C440.091 280.595 440.746 283.775 443.16 286.953C446.937 289.935 450.138 290.101 454.839 290.051C455.511 290.055 456.183 290.059 456.875 290.062C459.086 290.071 461.296 290.06 463.506 290.047C465.048 290.047 466.589 290.048 468.131 290.05C471.357 290.051 474.582 290.043 477.808 290.027C481.94 290.007 486.072 290.009 490.204 290.018C493.385 290.023 496.567 290.017 499.748 290.009C501.271 290.006 502.795 290.006 504.318 290.008C506.448 290.01 508.577 289.999 510.707 289.984C511.334 289.987 511.962 289.99 512.608 289.993C516.122 289.952 518.571 289.604 521.608 287.641C525.002 283.881 525.156 281.354 525.171 276.417C525.175 275.752 525.18 275.087 525.184 274.403C525.198 272.196 525.206 269.989 525.213 267.782C525.216 267.029 525.218 266.277 525.221 265.501C525.236 261.516 525.245 257.532 525.252 253.547C525.259 249.43 525.283 245.312 525.31 241.195C525.328 238.031 525.334 234.867 525.337 231.702C525.34 230.185 525.348 228.667 525.361 227.149C525.378 225.024 525.377 222.9 525.372 220.775C525.381 220.148 525.39 219.522 525.399 218.876C525.368 215.098 524.9 212.826 522.296 209.882C520.298 208.657 518.801 208.332 516.471 208.322C515.86 208.316 515.248 208.31 514.618 208.304C513.952 208.304 513.287 208.305 512.601 208.306C511.543 208.299 511.543 208.299 510.464 208.292C508.13 208.279 505.797 208.276 503.464 208.274C501.842 208.27 500.221 208.265 498.599 208.261C495.199 208.252 491.799 208.25 488.398 208.251C484.042 208.251 479.686 208.232 475.329 208.208C471.98 208.193 468.63 208.19 465.28 208.191C463.674 208.189 462.068 208.183 460.462 208.173C458.215 208.159 455.969 208.163 453.722 208.171C453.059 208.164 452.396 208.156 451.713 208.148C447.869 208.184 445.389 208.495 442.472 211.258ZM209.882 227.774C208.274 230.481 208.309 232.971 208.321 236.05C208.318 236.61 208.315 237.171 208.312 237.749C208.303 239.632 208.304 241.514 208.306 243.396C208.301 244.744 208.297 246.093 208.292 247.441C208.279 251.107 208.276 254.772 208.275 258.438C208.274 261.497 208.269 264.556 208.264 267.615C208.253 274.834 208.25 282.052 208.25 289.27C208.251 296.716 208.237 304.163 208.215 311.609C208.197 318.001 208.19 324.394 208.191 330.786C208.191 334.604 208.187 338.422 208.172 342.24C208.159 345.832 208.159 349.424 208.169 353.015C208.17 354.333 208.167 355.65 208.159 356.967C208.148 358.768 208.155 360.567 208.165 362.368C208.158 362.888 208.151 363.407 208.144 363.942C208.192 367.69 209.14 369.869 211.258 372.971C214.92 376.283 217.305 376.513 222.117 376.512C222.75 376.515 223.384 376.518 224.036 376.52C226.171 376.528 228.307 376.53 230.442 376.533C231.968 376.537 233.493 376.542 235.019 376.547C239.173 376.559 243.328 376.566 247.482 376.572C250.076 376.575 252.67 376.579 255.264 376.584C262.445 376.595 269.625 376.605 276.806 376.61C278.669 376.612 280.533 376.613 282.397 376.614C282.86 376.615 283.323 376.615 283.801 376.615C291.305 376.621 298.809 376.638 306.313 376.661C314.016 376.684 321.719 376.696 329.422 376.698C333.747 376.7 338.073 376.706 342.398 376.723C346.467 376.739 350.536 376.742 354.605 376.735C356.099 376.735 357.593 376.739 359.087 376.749C361.126 376.761 363.164 376.756 365.203 376.747C365.795 376.754 366.387 376.762 366.997 376.77C370.687 376.73 372.882 376.226 375.723 373.659C378.736 370.038 379.669 366.966 379.591 362.321C379.596 361.76 379.6 361.199 379.605 360.621C379.615 358.755 379.601 356.89 379.587 355.023C379.589 353.68 379.593 352.337 379.599 350.994C379.608 347.355 379.597 343.718 379.58 340.079C379.567 336.269 379.571 332.459 379.572 328.648C379.572 322.252 379.559 315.855 379.537 309.458C379.511 302.064 379.505 294.67 379.51 287.276C379.514 280.159 379.507 273.042 379.493 265.925C379.488 262.898 379.486 259.87 379.487 256.843C379.488 253.279 379.478 249.715 379.46 246.151C379.455 244.843 379.454 243.536 379.456 242.228C379.459 240.443 379.448 238.658 379.435 236.872C379.439 236.355 379.442 235.838 379.446 235.306C379.404 232.06 378.813 229.842 377.099 227.085C373.415 223.76 371.002 223.541 366.167 223.534C365.205 223.529 365.205 223.529 364.223 223.524C362.061 223.513 359.899 223.507 357.737 223.501C356.192 223.494 354.647 223.488 353.102 223.481C348.017 223.459 342.931 223.445 337.846 223.432C336.981 223.43 336.117 223.428 335.226 223.425C327.077 223.404 318.929 223.386 310.78 223.374C308.892 223.372 307.004 223.369 305.116 223.366C304.647 223.365 304.178 223.365 303.694 223.364C296.095 223.352 288.496 223.324 280.896 223.289C273.095 223.253 265.293 223.234 257.491 223.228C253.111 223.225 248.73 223.214 244.35 223.187C240.228 223.162 236.107 223.156 231.986 223.165C230.473 223.165 228.96 223.158 227.448 223.143C225.382 223.124 223.317 223.131 221.251 223.144C220.653 223.132 220.055 223.12 219.439 223.109C215.154 223.175 212.635 224.455 209.882 227.774Z" fill="white" fill-opacity="0.71"/>
<path d="M127.994 102.533C130.015 102.514 132.037 102.5 134.058 102.49C134.632 102.484 135.205 102.478 135.796 102.472C136.624 102.469 136.624 102.469 137.469 102.465C137.977 102.462 138.485 102.458 139.009 102.454C140.38 102.533 140.38 102.533 142.445 103.221C142.672 102.994 142.899 102.767 143.133 102.533C144.368 102.464 145.606 102.443 146.842 102.441C147.601 102.44 148.359 102.439 149.141 102.438C149.94 102.441 150.739 102.444 151.563 102.447C152.351 102.444 153.14 102.441 153.952 102.438C154.714 102.439 155.476 102.44 156.261 102.441C157.309 102.442 157.309 102.442 158.377 102.444C160.336 102.533 160.336 102.533 161.826 102.877C164.367 103.325 166.864 103.313 169.435 103.303C170.005 103.304 170.575 103.305 171.162 103.305C173.08 103.306 174.998 103.303 176.916 103.299C178.302 103.299 179.688 103.299 181.073 103.299C184.888 103.299 188.702 103.295 192.516 103.29C196.627 103.286 200.739 103.286 204.85 103.285C211.975 103.283 219.101 103.278 226.227 103.272C236.533 103.264 246.839 103.26 257.145 103.257C261.946 103.255 266.746 103.254 271.547 103.252C272.027 103.252 272.508 103.252 273.003 103.251C284.443 103.247 295.882 103.241 307.322 103.235C307.822 103.235 308.323 103.234 308.838 103.234C316.453 103.23 324.068 103.225 331.683 103.221C339.803 103.216 347.923 103.211 356.044 103.207C356.794 103.206 356.794 103.206 357.56 103.206C368.979 103.199 380.399 103.193 391.818 103.189C392.298 103.189 392.778 103.189 393.272 103.189C398.062 103.187 402.852 103.186 407.641 103.184C417.937 103.181 428.232 103.177 438.527 103.168C446.031 103.161 453.535 103.158 461.039 103.156C465.106 103.155 469.174 103.153 473.241 103.148C476.961 103.143 480.681 103.142 484.4 103.143C485.749 103.143 487.098 103.141 488.447 103.139C490.275 103.135 492.102 103.136 493.93 103.138C494.459 103.136 494.987 103.134 495.532 103.132C498.118 103.139 500.515 103.285 503.029 103.909C503.029 103.455 503.029 103 503.029 102.533C504.164 102.533 505.3 102.533 506.469 102.533C506.469 102.987 506.469 103.441 506.469 103.909C507.151 103.909 507.832 103.909 508.534 103.909C508.534 103.455 508.534 103 508.534 102.533C509.215 102.533 509.896 102.533 510.598 102.533C510.598 102.987 510.598 103.441 510.598 103.909C512.986 103.594 515.191 103.295 517.48 102.533C518.884 102.467 520.291 102.443 521.697 102.441C522.523 102.44 523.348 102.439 524.198 102.438C525.061 102.441 525.924 102.444 526.813 102.447C527.678 102.444 528.543 102.441 529.435 102.438C530.671 102.44 530.671 102.44 531.933 102.441C532.691 102.442 533.449 102.443 534.23 102.444C536.059 102.533 536.059 102.533 537.436 103.221C538.569 103.199 539.702 103.152 540.833 103.092C548.865 103.039 555.558 107.035 561.348 112.339C565.189 116.375 567.245 121.112 567.714 126.617C567.941 126.844 568.168 127.072 568.402 127.306C568.469 128.341 568.488 129.379 568.488 130.416C568.491 131.431 568.491 131.431 568.494 132.466C568.492 133.218 568.491 133.97 568.489 134.744C568.49 135.536 568.491 136.328 568.492 137.144C568.495 139.352 568.494 141.561 568.492 143.769C568.49 146.147 568.493 148.525 568.495 150.902C568.498 155.566 568.497 160.23 568.495 164.893C568.493 168.684 568.493 172.476 568.494 176.267C568.494 177.075 568.494 177.075 568.494 177.9C568.494 178.994 568.495 180.089 568.495 181.183C568.497 191.461 568.495 201.739 568.491 212.017C568.488 220.834 568.488 229.651 568.492 238.468C568.495 248.701 568.497 258.933 568.495 269.166C568.494 270.258 568.494 271.35 568.494 272.442C568.494 272.98 568.494 273.517 568.494 274.07C568.493 277.854 568.494 281.638 568.496 285.422C568.498 290.038 568.497 294.654 568.493 299.269C568.492 301.624 568.491 303.979 568.493 306.333C568.495 308.888 568.493 311.443 568.489 313.998C568.491 314.739 568.492 315.48 568.494 316.244C568.484 320.08 568.285 323.759 567.714 327.553C570.982 327.069 573.016 325.004 575.283 322.737C575.283 322.282 575.283 321.828 575.283 321.36C575.9 321.201 576.516 321.043 577.151 320.879C579.735 319.856 580.781 318.785 582.552 316.672C583.082 316.054 583.613 315.436 584.159 314.799C584.636 314.239 585.114 313.679 585.605 313.103C586.739 311.943 587.883 310.793 589.046 309.662C589.401 309.292 589.756 308.922 590.121 308.541C591.113 307.513 592.142 306.52 593.175 305.533C593.629 305.533 594.083 305.533 594.551 305.533C594.778 304.171 595.005 302.808 595.239 301.404C595.645 301.336 596.051 301.268 596.47 301.198C598.289 300.622 599.024 299.894 600.325 298.512C600.757 298.064 601.189 297.616 601.634 297.154C602.521 296.214 603.408 295.273 604.295 294.332C608.197 290.287 612.119 286.702 617.948 286.265C618.175 285.584 618.402 284.903 618.636 284.201C627.131 283.754 633.204 284.432 639.753 290.136C641.482 291.754 641.482 291.754 642.721 293.147C642.721 293.601 642.721 294.055 642.721 294.523C643.401 295.219 644.09 295.906 644.785 296.587C647.601 301.905 648.025 308.92 646.395 314.719C644.651 319.495 641.934 323.45 638.979 327.553C638.496 328.234 638.014 328.915 637.516 329.617C636.046 331.686 634.567 333.749 633.087 335.811C632.198 337.063 631.31 338.316 630.423 339.569C629.62 340.697 628.816 341.824 628.012 342.951C627.64 343.474 627.268 343.997 626.884 344.537C626.541 345.012 626.198 345.487 625.845 345.977C625.548 346.392 625.25 346.806 624.944 347.234C624.141 348.198 624.141 348.198 622.765 348.886C622.496 349.604 622.496 349.604 622.222 350.337C621.106 353.001 619.453 355.045 617.69 357.315C614.73 361.192 611.842 365.104 609.045 369.1C605.799 373.732 602.51 378.33 599.189 382.909C597.405 385.369 595.631 387.834 593.882 390.319C593.565 390.768 593.249 391.217 592.922 391.679C592.332 392.517 591.744 393.358 591.158 394.2C589.199 396.979 589.199 396.979 587.67 397.743C587.478 398.237 587.286 398.73 587.089 399.238C586.112 401.628 584.756 403.43 583.197 405.485C582.919 405.858 582.642 406.23 582.355 406.614C580.282 409.351 580.282 409.351 578.724 410.13C578.455 410.848 578.455 410.848 578.181 411.582C577.065 414.245 575.413 416.289 573.649 418.56C570.127 423.16 566.753 427.843 563.471 432.617C562.982 433.322 562.982 433.322 562.483 434.04C562.197 434.456 561.91 434.873 561.616 435.302C560.832 436.279 560.832 436.279 559.456 436.967C559.243 437.521 559.03 438.074 558.811 438.645C558.08 440.408 558.08 440.408 556.015 441.784C555.802 442.338 555.59 442.891 555.37 443.462C554.521 445.511 553.652 446.02 551.887 447.289C551.416 448.201 550.958 449.119 550.51 450.042C549.143 451.598 547.926 452.697 546.131 453.738C544.284 454.879 542.875 456.115 541.306 457.611C538.346 460.327 535.257 462.764 532.017 465.138C531.574 465.463 531.132 465.788 530.677 466.123C528.972 467.358 527.381 468.495 525.474 469.398C524.108 469.97 524.108 469.97 523.673 472.062C521.97 472.964 520.328 473.735 518.555 474.471C518.059 474.682 517.562 474.894 517.051 475.112C513.368 476.655 509.657 477.965 505.781 478.944C505.781 481.097 505.82 483.238 505.878 485.39C506.247 503.763 506.247 503.763 501.642 510.59C500.278 512.66 499.676 514.456 498.9 516.791C493.522 525.852 486.552 532.671 477.568 538.124C477.114 538.124 476.659 538.124 476.191 538.124C475.925 538.42 475.659 538.716 475.385 539.021C473.567 540.708 471.415 541.452 469.138 542.338C468.695 542.52 468.253 542.702 467.797 542.889C464.866 544.051 462.135 544.626 458.988 545.005C457.837 545.454 456.69 545.912 455.547 546.381C451.499 547.311 447.418 547.171 443.29 547.155C442.559 547.158 441.829 547.161 441.076 547.163C440.383 547.163 439.69 547.162 438.976 547.161C438.342 547.16 437.709 547.159 437.057 547.158C435.591 547.069 435.591 547.069 434.903 546.381C433.858 546.305 432.811 546.253 431.764 546.209C423.81 545.539 411.707 542.29 405.437 537.083C404.036 535.316 403.894 534.186 403.937 531.93C405.96 527.596 409.096 525.57 413.385 523.745C414.955 522.981 415.811 522.156 417.012 520.92C417.466 520.92 417.92 520.92 418.388 520.92C418.675 520.315 418.675 520.315 418.969 519.697C419.714 518.264 420.553 517.031 421.485 515.716C423.33 512.838 423.835 510.117 424.267 506.757C424.581 505.093 424.581 505.093 425.957 503.029C426.2 501.428 426.2 501.428 426.258 499.588C426.524 495.645 427.054 491.788 427.678 487.889C427.768 487.322 427.858 486.754 427.95 486.169C428.44 483.15 428.44 483.15 428.71 481.696C428.791 481.212 428.872 480.728 428.956 480.229C429.398 478.944 429.398 478.944 431.463 477.567C432.265 476.141 432.265 476.141 432.968 474.471C435.783 468.63 439.782 464.026 444.836 460.001C446.1 458.973 446.1 458.973 446.602 456.923C454.566 450.58 464.455 451.332 474.127 451.418C474.127 449.829 474.127 448.239 474.127 446.601C439.383 446.828 404.639 447.055 368.842 447.289C368.615 448.879 368.388 450.469 368.154 452.106C367.473 452.333 366.791 452.561 366.089 452.794C365.19 453.81 365.19 453.81 364.326 455.031C361.831 458.072 358.733 459.688 355.079 461.052C354.398 461.052 353.717 461.052 353.015 461.052C353.015 461.506 353.015 461.96 353.015 462.428C337.616 462.798 337.616 462.798 332.457 458.644C329.532 455.807 327.706 452.674 326.866 448.666C327.093 447.984 327.32 447.303 327.554 446.601C318.925 446.601 310.295 446.601 301.405 446.601C301.405 447.055 301.405 447.51 301.405 447.978C301.97 448.12 302.536 448.263 303.12 448.41C306.215 449.62 308.519 451.407 311.124 453.44C311.608 453.81 312.091 454.18 312.589 454.562C314.437 455.978 316.278 457.396 318.087 458.861C319.261 459.753 319.261 459.753 320.707 460.025C322.37 460.445 323.058 461.119 324.242 462.342C324.592 462.695 324.943 463.048 325.304 463.412C326.177 464.493 326.177 464.493 326.866 466.557C327.852 467.508 327.852 467.508 329.059 468.407C331.775 470.645 333.965 473.189 335.811 476.191C335.811 476.645 335.811 477.1 335.811 477.567C336.295 478.011 336.778 478.454 337.276 478.911C340.049 481.585 341.6 485.013 343.338 488.406C343.7 489.107 344.062 489.809 344.435 490.532C346.552 494.716 348.483 498.908 350.047 503.33C350.286 504.005 350.286 504.005 350.53 504.693C351.27 506.938 351.752 509.113 352.02 511.453C352.306 513.865 352.953 515.69 353.867 517.92C354.784 520.761 355.085 523.707 355.472 526.659C355.575 528.431 355.575 528.431 356.456 529.178C357.557 529.38 358.661 529.564 359.767 529.737C362.663 530.291 364.337 530.792 366.089 533.307C366.908 535.762 366.902 538.013 366.917 540.57C366.921 541.078 366.925 541.586 366.929 542.11C366.936 543.184 366.94 544.259 366.943 545.334C366.95 546.973 366.971 548.611 366.993 550.249C366.997 551.295 367.001 552.341 367.003 553.386C367.012 553.874 367.02 554.361 367.029 554.864C367.012 558.722 366.034 560.888 363.337 563.585C360.722 564.565 357.923 564.396 355.168 564.413C354.645 564.416 354.123 564.42 353.585 564.424C352.482 564.431 351.379 564.435 350.276 564.438C348.593 564.445 346.911 564.466 345.229 564.488C344.155 564.492 343.081 564.496 342.007 564.499C341.507 564.507 341.006 564.516 340.491 564.524C336.589 564.507 334.412 563.561 331.683 560.832C330.752 558.305 330.871 555.647 330.855 552.988C330.851 552.498 330.847 552.008 330.843 551.502C330.836 550.467 330.832 549.432 330.829 548.397C330.822 546.821 330.801 545.247 330.779 543.672C330.775 542.663 330.771 541.654 330.769 540.645C330.76 540.178 330.752 539.711 330.743 539.23C330.758 536.068 331.374 533.916 333.059 531.242C335.148 529.85 335.945 529.645 338.349 529.436C338.905 529.384 339.461 529.333 340.034 529.28C340.457 529.246 340.881 529.212 341.317 529.178C341.468 525.697 341.044 522.676 340.241 519.286C339.94 517.479 339.94 517.479 340.005 515.176C339.933 512.363 339.246 510.124 338.22 507.544C338.036 507.071 337.852 506.598 337.663 506.111C332.544 492.205 332.544 492.205 323.325 481.554C322.904 481.374 322.483 481.194 322.049 481.008C321.336 480.11 320.651 479.189 319.984 478.256C318.854 477.093 317.703 475.949 316.544 474.815C315.581 473.871 314.621 472.924 313.662 471.976C313.198 471.52 312.734 471.064 312.256 470.595C311.038 469.31 311.038 469.31 309.662 467.245C308.756 466.765 307.835 466.312 306.91 465.869C305.264 464.793 303.633 463.705 302.007 462.6C294.184 457.201 294.184 457.201 285.575 453.289C284.03 452.733 282.585 452.041 281.104 451.332C278.184 450.005 275.684 449.667 272.503 449.354C271.119 448.917 269.742 448.461 268.374 447.978C268.398 448.716 268.422 449.455 268.447 450.217C268.466 451.205 268.485 452.193 268.503 453.182C268.52 453.666 268.538 454.151 268.555 454.651C268.604 458.2 268.138 460.723 266.31 463.805C263.977 464.5 261.744 464.576 259.322 464.562C258.633 464.56 257.944 464.557 257.234 464.554C256.497 464.546 255.76 464.539 255.001 464.53C254.237 464.522 253.472 464.514 252.685 464.506C251.071 464.486 249.456 464.464 247.842 464.44C246.191 464.418 244.541 464.403 242.891 464.396C240.504 464.386 238.119 464.353 235.733 464.315C234.998 464.316 234.262 464.317 233.504 464.317C227.789 464.187 227.789 464.187 225.212 462.181C223.645 460.364 223.645 460.364 223.645 458.3C223.191 458.3 222.737 458.3 222.269 458.3C222.269 455.12 222.269 451.941 222.269 448.666C216.402 450.132 211.023 451.619 205.536 454.203C203.443 454.946 201.765 454.975 199.56 454.859C199.432 455.256 199.305 455.654 199.173 456.063C197.681 458.399 195.837 459.129 193.367 460.364C192.913 460.364 192.459 460.364 191.991 460.364C191.205 461.149 190.423 461.938 189.655 462.74C188.382 463.966 187.032 465.014 185.625 466.084C182.79 468.246 180.135 470.555 177.502 472.957C176.164 474.127 176.164 474.127 174.099 475.503C173.633 476.417 173.176 477.335 172.723 478.256C171.636 479.693 170.536 481.107 169.411 482.513C166.953 485.633 164.819 488.715 163.046 492.287C162.401 493.395 162.401 493.395 161.025 494.083C160.519 495.282 160.519 495.282 160.121 496.749C159.108 500.003 157.746 503.005 156.267 506.071C155.527 507.827 155.175 509.42 154.831 511.286C154.204 513.149 153.481 514.959 152.767 516.791C152.313 516.791 151.859 516.791 151.391 516.791C150.709 523.944 150.709 523.944 150.014 531.242C152.285 531.242 154.556 531.242 156.896 531.242C159.347 532.145 159.347 532.145 161.025 533.307C162.265 537.028 161.923 541.138 161.954 545.04C161.965 546.104 161.984 547.168 162.01 548.231C162.048 549.771 162.063 551.309 162.073 552.849C162.088 553.321 162.104 553.794 162.12 554.28C162.108 556.944 161.799 557.978 160.056 560.041C159.173 560.773 159.173 560.773 158.272 561.52C157.818 561.974 157.364 562.429 156.896 562.896C154.954 563.051 153.081 563.122 151.138 563.128C150.566 563.132 149.994 563.137 149.405 563.142C148.194 563.149 146.982 563.152 145.771 563.152C143.919 563.155 142.068 563.18 140.216 563.206C139.04 563.21 137.863 563.212 136.687 563.214C135.857 563.229 135.857 563.228 135.01 563.244C132.504 563.223 131.06 563.137 129.042 561.586C126.256 557.751 126.903 552.569 126.733 547.975C126.685 546.772 126.628 545.57 126.562 544.369C126.468 542.634 126.402 540.9 126.341 539.164C126.289 538.362 126.289 538.362 126.237 537.543C126.189 535.503 126.199 533.841 127.491 532.192C129.741 530.236 131.391 529.435 134.359 529.608C134.945 529.631 135.53 529.654 136.133 529.678C137.628 529.866 137.628 529.866 139.004 530.554C138.946 530.073 138.889 529.592 138.829 529.097C138.759 528.471 138.689 527.845 138.617 527.199C138.509 526.265 138.509 526.265 138.399 525.312C138.316 523.673 138.316 523.673 139.004 522.296C139.077 521.251 139.131 520.204 139.176 519.157C140.268 506.304 146.302 489.311 155.519 480.32C156.517 479.033 157.492 477.727 158.444 476.406C162.782 470.546 167.631 465.338 172.895 460.302C174.25 459.002 174.25 459.002 174.787 456.923C175.171 456.829 175.555 456.735 175.951 456.638C178.272 456.049 179.747 454.688 181.626 453.225C183.626 451.672 185.555 450.185 187.736 448.897C189.326 448.106 189.326 448.106 189.926 446.601C186.571 446.512 183.22 446.473 179.863 446.479C178.723 446.475 177.583 446.456 176.443 446.424C172.778 446.326 169.403 446.356 165.841 447.289C163.613 449.566 162.792 451.915 161.713 454.859C158.815 458.697 155.289 460.997 150.702 462.428C150.021 462.428 149.34 462.428 148.638 462.428C148.638 462.883 148.638 463.337 148.638 463.805C145.369 464.579 145.369 464.579 143.821 463.805C142.693 463.847 142.693 463.847 141.542 463.891C138.787 463.797 137.795 463.248 135.563 461.74C135.052 461.613 134.542 461.485 134.015 461.353C133.618 461.254 133.22 461.155 132.811 461.052C132.584 460.598 132.357 460.144 132.123 459.676C131.487 459.374 131.487 459.374 130.838 459.066C129.115 458.167 128.36 457.238 127.22 455.676C126.861 455.187 126.503 454.699 126.134 454.195C125.241 452.794 125.241 452.794 124.639 450.816C123.928 449.058 123.928 449.058 121.414 448.58C120.396 448.378 119.378 448.177 118.36 447.978C110.588 445.973 104.567 441.701 100.272 434.873C97.8296 430.347 97.629 425.817 97.6381 420.72C97.638 420.212 97.638 419.704 97.638 419.181C97.6387 417.483 97.6443 415.784 97.65 414.086C97.6515 412.855 97.6528 411.624 97.6538 410.393C97.6574 407.012 97.6653 403.631 97.674 400.25C97.6826 396.603 97.6872 392.956 97.6924 389.309C97.7032 382.164 97.7179 375.019 97.7341 367.875C97.7472 362.068 97.7593 356.261 97.7705 350.454C97.8025 333.99 97.8374 317.527 97.876 301.064C97.8781 300.176 97.8802 299.288 97.8824 298.374C97.8844 297.485 97.8865 296.597 97.8887 295.681C97.9223 281.278 97.9491 266.874 97.9728 252.47C97.9972 237.681 98.0266 222.893 98.0614 208.104C98.0808 199.801 98.0981 191.498 98.11 183.195C98.1202 176.126 98.1351 169.057 98.156 161.988C98.1666 158.382 98.175 154.776 98.1774 151.169C98.1797 147.866 98.1883 144.564 98.2019 141.261C98.2057 140.068 98.2073 138.874 98.2062 137.681C98.2024 131.804 98.2464 126.144 99.7803 120.424C99.8829 119.955 99.9856 119.485 100.091 119.001C101.045 115.637 103.224 113.455 105.974 111.478C106.413 110.911 106.853 110.343 107.307 109.758C108.803 107.944 110.062 106.998 112.167 105.973C112.848 105.973 113.529 105.973 114.231 105.973C114.458 105.519 114.685 105.065 114.919 104.597C116.521 104.34 118.127 104.11 119.736 103.909C119.963 103.682 120.19 103.455 120.424 103.221C121.44 103.153 122.46 103.131 123.478 103.135C124.307 103.132 124.307 103.132 125.153 103.129C126.618 103.221 126.618 103.221 127.994 103.909C127.994 103.455 127.994 103 127.994 102.533ZM113.543 120.424C102.625 134.142 109.414 155.267 109.414 170.658C257.02 170.658 404.625 170.658 556.704 170.658C560.311 143.373 560.311 143.373 550.983 119.435C545.522 115.223 539.282 114.816 532.635 114.831C531.585 114.829 531.585 114.829 530.513 114.827C528.151 114.824 525.789 114.825 523.427 114.827C521.723 114.826 520.018 114.824 518.314 114.822C514.6 114.819 510.887 114.818 507.173 114.818C501.651 114.82 496.128 114.817 490.606 114.813C480.17 114.806 469.733 114.804 459.297 114.804C451.238 114.804 443.179 114.802 435.12 114.8C432.801 114.8 430.483 114.799 428.164 114.798C427.588 114.798 427.011 114.798 426.418 114.798C410.202 114.794 393.986 114.791 377.77 114.791C377.158 114.791 376.547 114.791 375.916 114.791C372.817 114.791 369.717 114.791 366.617 114.791C366.001 114.791 365.386 114.791 364.751 114.791C363.506 114.792 362.261 114.792 361.016 114.792C341.646 114.792 322.275 114.787 302.904 114.777C281.148 114.767 259.392 114.761 237.636 114.762C235.317 114.762 232.998 114.762 230.678 114.762C230.107 114.762 229.536 114.762 228.948 114.762C219.752 114.762 210.557 114.757 201.362 114.751C192.122 114.746 182.882 114.745 173.642 114.749C168.152 114.752 162.661 114.751 157.171 114.744C153.073 114.739 148.975 114.742 144.877 114.747C143.217 114.748 141.558 114.747 139.899 114.743C137.646 114.738 135.394 114.742 133.141 114.748C132.171 114.743 132.171 114.743 131.182 114.737C124.31 114.774 118.883 115.909 113.543 120.424ZM109.414 182.356C109.357 222.324 109.301 262.291 109.242 303.469C109.217 316.1 109.192 328.732 109.166 341.746C109.157 353.044 109.157 353.044 109.151 364.342C109.149 369.384 109.139 374.426 109.124 379.468C109.106 385.281 109.098 391.095 109.102 396.908C109.104 399.883 109.101 402.857 109.086 405.832C109.073 408.522 109.072 411.212 109.081 413.902C109.083 414.874 109.079 415.846 109.07 416.818C109.019 422.923 109.275 427.355 113.344 432.167C117.147 435.255 120.247 436.517 125.241 436.279C125.426 435.838 125.61 435.397 125.8 434.943C128.486 429.015 132.175 424.973 138.316 422.516C144.81 421.022 149.806 421.442 155.7 424.691C160.388 427.842 162.238 431.083 164.465 436.279C183.767 436.279 203.07 436.279 222.957 436.279C223.184 432.419 223.411 428.558 223.645 424.581C227.854 420.372 227.854 420.372 231.659 420.341C232.323 420.335 232.987 420.328 233.671 420.321C234.39 420.318 235.11 420.315 235.851 420.312C236.59 420.308 237.328 420.304 238.089 420.3C239.653 420.294 241.218 420.289 242.783 420.287C245.175 420.28 247.567 420.259 249.96 420.237C251.479 420.233 252.998 420.229 254.517 420.226C255.233 420.218 255.948 420.209 256.685 420.201C263.06 420.22 263.06 420.22 265.621 422.516C267.371 425.093 267.3 427.935 267.428 430.946C267.468 431.715 267.468 431.715 267.508 432.5C267.573 433.759 267.63 435.019 267.686 436.279C275.456 436.359 283.226 436.42 290.996 436.457C294.604 436.475 298.212 436.5 301.82 436.539C305.3 436.576 308.78 436.597 312.26 436.606C313.59 436.612 314.919 436.624 316.248 436.643C318.107 436.668 319.965 436.671 321.824 436.67C322.376 436.682 322.928 436.695 323.498 436.707C325.206 436.73 325.206 436.73 327.554 436.279C328.946 434.726 328.946 434.726 329.618 432.839C332.447 428.02 336.433 423.841 341.873 422.127C347.912 420.932 353.988 421.728 359.364 424.756C363.742 427.764 365.824 431.62 368.154 436.279C404.26 436.279 440.367 436.279 477.568 436.279C480.52 430.148 483.472 424.017 486.513 417.699C495.062 404.877 499.519 400.257 512.821 392.789C533.098 379.453 533.098 379.453 556.704 343.381C556.704 290.243 556.704 237.105 556.704 182.356C409.098 182.356 261.493 182.356 109.414 182.356ZM607.739 306.561C607.006 307.296 606.271 308.029 605.537 308.763C603.555 310.745 601.579 312.732 599.604 314.721C597.531 316.807 595.452 318.888 593.374 320.968C589.441 324.908 585.513 328.853 581.586 332.8C577.128 337.281 572.665 341.756 568.2 346.231C560.567 353.882 552.939 361.537 545.315 369.197C544.687 369.828 544.059 370.459 543.412 371.109C542.87 371.654 542.327 372.2 541.768 372.762C539.047 375.492 536.319 378.215 533.577 380.925C530.588 383.881 527.603 386.842 524.622 389.806C522.823 391.595 521.022 393.381 519.217 395.163C517.464 396.893 515.716 398.629 513.971 400.368C513.306 401.029 512.64 401.688 511.972 402.345C511.041 403.261 510.118 404.183 509.194 405.106C508.667 405.629 508.139 406.152 507.596 406.691C506.251 408.036 506.251 408.036 506.469 410.13C507.9 411.528 507.9 411.528 509.781 412.926C512.56 415.121 515.221 417.357 517.824 419.764C520.271 422.017 522.759 424.172 525.35 426.258C528.871 429.098 532.187 432.109 535.492 435.193C537.47 436.999 539.495 438.709 541.564 440.408C543.744 439.476 544.872 438.558 546.228 436.623C546.577 436.133 546.925 435.642 547.284 435.137C547.654 434.606 548.023 434.074 548.403 433.527C549.205 432.392 550.008 431.258 550.811 430.124C551.219 429.543 551.627 428.963 552.048 428.365C553.546 426.245 555.07 424.145 556.596 422.046C560.144 417.167 563.624 412.244 567.069 407.291C570.314 402.628 573.642 398.046 577.075 393.52C579.87 389.824 582.551 386.056 585.21 382.262C587.749 378.641 590.323 375.047 592.917 371.465C595.537 367.846 598.152 364.223 600.744 360.584C604.466 355.363 608.222 350.169 611.979 344.973C613.112 343.407 614.244 341.84 615.375 340.273C615.744 339.763 616.112 339.253 616.491 338.728C617.231 337.704 617.97 336.679 618.709 335.655C620.636 332.985 622.568 330.318 624.507 327.656C625.106 326.831 625.106 326.831 625.718 325.989C626.475 324.947 627.234 323.906 627.994 322.866C632.65 316.451 636.001 311.703 635.151 303.469C633.461 300.026 631.024 297.621 627.582 295.899C626.091 295.683 626.091 295.683 624.399 295.641C623.555 295.591 623.555 295.591 622.695 295.539C616.479 296.661 611.974 302.279 607.739 306.561ZM498.9 417.699C492.882 427.368 488.11 436.95 485.137 447.978C484.905 448.684 484.672 449.39 484.433 450.117C483.912 452.286 483.728 453.425 484.449 455.547C486.684 457.615 489.018 459.191 491.594 460.797C494.614 462.69 496.783 465.084 498.9 467.934C512.773 465.835 524.504 458.679 534.683 449.354C533.607 446.623 531.71 444.939 529.565 443.032C529.197 442.699 528.829 442.366 528.45 442.024C525.512 439.391 522.467 436.903 519.394 434.43C517.314 432.701 515.33 430.895 513.351 429.054C506.686 422.568 506.686 422.568 498.9 417.699ZM233.967 430.774C233.967 438.268 233.967 445.762 233.967 453.483C241.461 453.483 248.955 453.483 256.676 453.483C256.676 445.989 256.676 438.495 256.676 430.774C249.182 430.774 241.688 430.774 233.967 430.774ZM136.768 435.989C134.922 438.835 134.439 441.11 134.875 444.537C136.062 447.833 137.867 450.533 141.069 452.106C144.451 452.748 147.563 452.543 150.659 450.988C153.471 448.808 154.583 447.128 155.046 443.575C155.235 439.656 154.798 437.228 152.079 434.215C149.438 431.885 146.823 431.793 143.431 431.914C140.434 432.337 138.626 433.643 136.768 435.989ZM338.65 436.365C337.487 439.337 337.421 442.078 337.876 445.225C339.371 448.215 341.148 450.455 344.069 452.106C348.111 452.709 351.683 452.468 355.079 450.042C357.593 447.462 358.059 445.277 358.219 441.784C358.129 439.112 357.968 437.279 356.284 435.161C352.863 432.207 350.38 431.844 345.924 431.933C342.579 432.325 340.808 433.92 338.65 436.365ZM449.354 469.998C448.779 470.423 448.204 470.848 447.612 471.285C445.732 472.907 444.668 474.437 443.419 476.578C443.027 477.232 442.635 477.886 442.231 478.559C439.595 484.25 438.732 490.134 438.086 496.319C436.661 508.306 433.001 518.359 425.086 527.67C423.994 529.05 423.231 530.33 422.517 531.93C437.844 537.55 453.853 536.53 468.622 529.866C477.358 525.386 484.655 518.575 489.266 509.91C489.752 509.009 489.752 509.009 490.247 508.09C494.41 499.704 496.332 489.688 493.951 480.492C491.201 472.838 485.463 467.34 478.256 463.805C467.687 459.625 457.568 462.931 449.354 469.998ZM137.628 540.876C137.628 544.964 137.628 549.051 137.628 553.263C141.715 553.263 145.803 553.263 150.014 553.263C150.014 549.175 150.014 545.087 150.014 540.876C145.927 540.876 141.839 540.876 137.628 540.876ZM342.693 540.876C342.693 544.964 342.693 549.051 342.693 553.263C346.78 553.263 350.868 553.263 355.079 553.263C355.079 549.175 355.079 545.087 355.079 540.876C350.992 540.876 346.904 540.876 342.693 540.876Z" fill="#494E4E"/>
<path d="M132.875 114.828C133.576 114.827 134.276 114.825 134.998 114.824C137.357 114.82 139.716 114.821 142.075 114.822C143.779 114.82 145.484 114.818 147.188 114.816C151.387 114.811 155.586 114.809 159.785 114.809C164.815 114.808 169.844 114.804 174.874 114.799C187.029 114.788 199.185 114.784 211.341 114.781C217.091 114.779 222.842 114.776 228.592 114.774C248.276 114.765 267.96 114.758 287.645 114.755C288.88 114.755 290.116 114.755 291.351 114.755C292.59 114.755 293.829 114.755 295.067 114.754C297.552 114.754 300.036 114.754 302.521 114.753C303.445 114.753 303.445 114.753 304.388 114.753C324.367 114.751 344.345 114.74 364.323 114.724C385.446 114.707 406.569 114.697 427.691 114.697C430.01 114.696 432.329 114.696 434.647 114.696C435.218 114.696 435.789 114.696 436.377 114.696C445.565 114.695 454.753 114.688 463.941 114.678C473.175 114.668 482.41 114.665 491.644 114.671C497.13 114.674 502.616 114.671 508.101 114.661C512.198 114.653 516.295 114.656 520.392 114.664C522.048 114.665 523.705 114.663 525.362 114.657C527.615 114.649 529.868 114.655 532.121 114.663C532.763 114.658 533.406 114.652 534.068 114.647C540.179 114.695 546.391 115.73 551.198 119.736C563.927 133.056 556.703 153.721 556.703 170.658C409.098 170.658 261.492 170.658 109.414 170.658C109.414 127.041 109.414 127.041 113.285 120.639C118.816 115.253 125.567 114.815 132.875 114.828ZM134.875 139.692C133.715 141.696 133.493 142.879 133.542 145.197C134.348 147.778 135.614 148.94 137.627 150.702C137.855 150.929 138.082 151.156 138.316 151.39C141.739 151.653 143.865 151.508 146.573 149.326C148.562 146.789 148.978 144.951 148.638 141.756C147.824 139.383 146.746 138.087 144.509 136.939C140.521 136.319 137.682 136.545 134.875 139.692ZM163.777 139.692C162.666 141.913 162.679 144.171 163.089 146.573C164.283 148.655 165.728 150.301 167.905 151.39C170.518 151.508 173.065 151.406 175.271 149.904C176.948 148.096 177.54 146.57 177.97 144.165C177.402 140.988 176.363 139.891 174.099 137.627C170.163 135.66 166.682 136.698 163.777 139.692ZM193.367 139.692C192.172 142.081 192.264 144.655 192.678 147.261C194.18 149.158 195.343 150.314 197.495 151.39C200.108 151.508 202.654 151.406 204.861 149.904C206.512 148.124 207.131 146.566 207.602 144.208C206.968 140.92 205.775 138.864 203.001 136.939C199.06 135.916 196.18 136.702 193.367 139.692Z" fill="white"/>
<path d="M219.516 234.655C268.566 234.655 317.617 234.655 368.154 234.655C368.154 270.534 368.154 306.414 368.154 343.38C365.683 340.91 364.182 338.693 362.562 335.682C362.013 334.683 361.463 333.685 360.912 332.687C360.489 331.921 360.489 331.921 360.058 331.139C358.727 328.757 357.333 326.414 355.939 324.07C353.24 319.516 350.62 314.921 348.026 310.307C344.515 304.066 340.938 297.867 337.313 291.691C335.315 288.283 333.337 284.865 331.4 281.421C331.027 280.76 330.654 280.098 330.27 279.416C329.568 278.168 328.87 276.918 328.177 275.666C325.437 270.593 325.437 270.593 320.672 267.685C317.385 267.499 314.734 267.663 311.726 269.062C310.995 270.328 310.995 270.328 310.35 271.814C309.774 272.827 309.189 273.835 308.597 274.838C308.073 275.727 308.073 275.727 307.538 276.635C307.16 277.272 306.782 277.91 306.393 278.567C305.801 279.567 305.801 279.567 305.197 280.587C301.545 286.743 297.835 292.863 294.095 298.966C292.559 301.475 291.046 303.996 289.553 306.53C289.207 307.111 288.862 307.692 288.506 308.29C287.859 309.379 287.218 310.472 286.583 311.568C285.845 312.803 285.03 313.991 284.201 315.167C282.136 315.167 282.136 315.167 280.322 313.379C279.618 312.588 278.919 311.793 278.223 310.995C277.478 310.173 276.731 309.352 275.983 308.533C275.621 308.135 275.259 307.737 274.886 307.327C271.385 303.195 271.385 303.195 266.605 301.071C263.661 300.985 261.244 301.116 258.74 302.78C258.016 303.979 258.016 303.979 257.363 305.533C256.344 307.22 255.314 308.896 254.267 310.565C253.96 311.055 253.653 311.545 253.337 312.05C251.362 315.19 249.333 318.287 247.256 321.36C244.205 325.879 241.316 330.492 238.44 335.123C235.259 340.243 232.047 345.328 228.668 350.32C226.555 353.443 224.553 356.624 222.594 359.845C221.58 361.272 221.58 361.272 219.516 362.648C219.516 320.41 219.516 278.173 219.516 234.655Z" fill="white" fill-opacity="0.71"/>
<path d="M221.068 223.295C221.711 223.291 222.355 223.286 223.018 223.282C225.175 223.271 227.332 223.28 229.49 223.288C231.036 223.284 232.583 223.28 234.129 223.274C238.33 223.261 242.531 223.266 246.733 223.275C251.127 223.282 255.522 223.275 259.916 223.271C267.77 223.266 275.624 223.274 283.478 223.288C290.596 223.3 297.715 223.298 304.833 223.286C313.102 223.271 321.37 223.265 329.639 223.273C334.015 223.278 338.391 223.278 342.767 223.269C346.882 223.261 350.997 223.267 355.111 223.283C356.622 223.286 358.133 223.285 359.644 223.279C361.705 223.272 363.766 223.281 365.827 223.295C366.725 223.286 366.725 223.286 367.641 223.276C371.355 223.324 373.455 223.944 376.411 226.397C379.213 229.585 379.267 232.54 379.27 236.624C379.274 237.459 379.274 237.459 379.279 238.312C379.288 240.185 379.293 242.058 379.297 243.932C379.302 245.272 379.308 246.613 379.314 247.953C379.332 252.361 379.342 256.769 379.352 261.177C379.356 262.695 379.36 264.212 379.363 265.729C379.378 272.04 379.391 278.351 379.399 284.662C379.41 293.708 379.433 302.754 379.472 311.799C379.499 318.159 379.512 324.518 379.516 330.878C379.518 334.677 379.527 338.475 379.549 342.274C379.57 345.848 379.574 349.423 379.566 352.998C379.566 354.308 379.571 355.619 379.583 356.929C379.599 358.722 379.593 360.514 379.582 362.306C379.592 362.822 379.602 363.337 379.611 363.868C379.552 367.866 378.277 370.592 375.723 373.658C372.359 376.696 369.538 376.805 365.222 376.76C364.586 376.765 363.95 376.769 363.295 376.773C361.168 376.784 359.042 376.776 356.915 376.767C355.389 376.771 353.863 376.776 352.337 376.782C348.194 376.794 344.051 376.789 339.908 376.781C335.573 376.774 331.239 376.78 326.904 376.784C319.158 376.79 311.412 376.781 303.666 376.767C296.646 376.755 289.625 376.757 282.605 376.77C274.449 376.784 266.292 376.79 258.136 376.782C253.82 376.778 249.504 376.777 245.187 376.786C241.13 376.794 237.072 376.788 233.014 376.773C231.525 376.769 230.035 376.77 228.545 376.776C226.513 376.784 224.481 376.774 222.448 376.76C221.858 376.767 221.268 376.773 220.66 376.779C216.967 376.731 214.884 376.095 211.947 373.658C208.722 370.086 208.404 367.373 208.405 362.708C208.401 361.867 208.401 361.867 208.397 361.008C208.389 359.122 208.387 357.237 208.384 355.351C208.38 354.001 208.375 352.652 208.37 351.302C208.358 347.631 208.351 343.96 208.346 340.289C208.342 337.996 208.338 335.704 208.334 333.411C208.32 326.24 208.311 319.07 208.305 311.899C208.298 303.617 208.28 295.335 208.252 287.053C208.231 280.654 208.221 274.255 208.219 267.857C208.217 264.033 208.211 260.21 208.194 256.387C208.178 252.791 208.175 249.195 208.182 245.599C208.182 244.279 208.178 242.959 208.169 241.639C208.156 239.837 208.161 238.035 208.17 236.233C208.163 235.711 208.155 235.189 208.147 234.651C208.201 230.204 209.818 227.952 212.753 224.784C215.536 223.154 217.895 223.262 221.068 223.295ZM219.516 234.655C219.516 276.892 219.516 319.13 219.516 362.648C222.388 359.868 222.388 359.868 224.556 356.826C224.952 356.178 224.952 356.178 225.355 355.517C225.628 355.06 225.901 354.603 226.183 354.132C226.79 353.137 227.4 352.143 228.01 351.149C228.316 350.65 228.622 350.152 228.938 349.639C230.263 347.518 231.66 345.449 233.064 343.38C236.116 338.862 239.004 334.249 241.881 329.618C246.997 321.388 252.228 313.274 257.928 305.433C258.863 304.215 258.863 304.215 258.74 302.78C261.904 300.988 264.812 300.71 268.374 301.404C270.546 302.703 272.154 304.385 273.879 306.221C274.84 307.153 275.8 308.085 276.761 309.016C278.919 311.2 280.907 313.458 282.825 315.855C285.458 313.515 287.003 310.881 288.717 307.855C289.328 306.796 289.94 305.738 290.553 304.681C290.867 304.137 291.182 303.594 291.505 303.034C293.019 300.446 294.587 297.893 296.157 295.34C298.199 292.02 300.227 288.694 302.222 285.346C302.588 284.732 302.954 284.118 303.331 283.485C304.033 282.305 304.734 281.124 305.432 279.942C306.949 277.394 308.492 274.923 310.248 272.532C311.859 270.678 311.859 270.678 311.727 269.061C315.402 267.627 318.639 266.941 322.436 268.33C327.414 272.543 330.325 279.463 333.489 285.061C333.978 285.922 334.468 286.784 334.958 287.645C335.937 289.367 336.915 291.09 337.892 292.814C339.729 296.054 341.576 299.288 343.424 302.522C343.91 303.373 343.91 303.373 344.405 304.24C348.028 310.578 351.677 316.901 355.332 323.22C356.924 325.974 358.505 328.733 360.074 331.499C360.416 332.1 360.759 332.702 361.112 333.321C361.743 334.428 362.37 335.536 362.993 336.647C363.412 337.38 363.412 337.38 363.84 338.128C364.195 338.757 364.195 338.757 364.558 339.399C365.593 340.987 365.593 340.987 368.154 343.38C368.154 307.501 368.154 271.621 368.154 234.655C319.103 234.655 270.053 234.655 219.516 234.655ZM317.232 280.072C316.872 280.723 316.513 281.374 316.143 282.045C312.39 288.805 308.428 295.414 304.372 301.996C303.022 304.197 301.697 306.413 300.372 308.629C299.874 309.457 299.376 310.285 298.878 311.113C297.681 313.105 296.504 315.108 295.33 317.113C294.66 318.242 293.989 319.371 293.319 320.5C293.011 321.033 292.702 321.567 292.385 322.117C290.694 324.942 289.4 326.893 286.266 328.241C283.986 328.671 283.986 328.671 281.449 328.241C277.303 325.305 273.863 321.339 270.438 317.618C269.971 317.115 269.503 316.611 269.022 316.093C267.886 314.869 266.752 313.643 265.621 312.414C263.508 314.979 261.604 317.644 259.772 320.414C259.326 321.086 259.326 321.086 258.871 321.772C256.223 325.781 253.654 329.838 251.097 333.905C248.103 338.668 245.083 343.414 242.053 348.154C241.606 348.854 241.159 349.555 240.699 350.276C238.878 353.122 237.058 355.966 235.162 358.762C234.658 359.506 234.153 360.25 233.634 361.017C232.94 362.03 232.94 362.03 232.231 363.064C231.094 364.585 231.094 364.585 231.215 366.089C276.177 366.089 321.14 366.089 367.466 366.089C366.245 363.036 364.808 360.37 363.122 357.573C360.308 352.847 357.565 348.086 354.864 343.294C354.487 342.626 354.11 341.958 353.722 341.269C352.195 338.559 350.67 335.848 349.146 333.137C344.625 325.098 340.053 317.091 335.394 309.131C332.274 303.8 329.177 298.455 326.091 293.103C325.66 292.354 325.228 291.605 324.783 290.834C322.718 287.25 320.657 283.665 318.608 280.072C318.154 280.072 317.7 280.072 317.232 280.072Z" fill="#4A4F50"/>
<path d="M317.231 280.072C317.685 280.072 318.14 280.072 318.608 280.072C318.938 280.661 318.938 280.661 319.276 281.263C323.598 288.956 327.955 296.627 332.413 304.243C338.024 313.83 343.551 323.461 348.963 333.163C352.696 339.855 356.469 346.521 360.326 353.143C360.725 353.83 361.124 354.516 361.535 355.223C363.084 357.871 364.624 360.5 366.363 363.027C367.465 364.713 367.465 364.713 367.465 366.089C322.502 366.089 277.54 366.089 231.214 366.089C232.19 363.648 232.944 361.946 234.343 359.834C234.692 359.302 235.042 358.771 235.402 358.223C235.78 357.654 236.158 357.085 236.547 356.498C237.364 355.255 238.18 354.011 238.996 352.767C239.417 352.125 239.838 351.483 240.272 350.822C242.282 347.742 244.254 344.637 246.224 341.531C249.842 335.834 253.469 330.142 257.105 324.457C257.57 323.73 258.035 323.002 258.513 322.253C260.625 318.954 262.742 315.662 264.933 312.414C268.469 315.244 271.518 318.379 274.508 321.771C278.479 326.404 278.479 326.404 283.9 328.585C286.566 328.198 287.579 327.823 289.706 326.177C291.193 324.151 292.42 321.994 293.663 319.812C294.402 318.547 295.141 317.281 295.88 316.016C296.239 315.396 296.597 314.775 296.967 314.136C298.237 311.942 299.537 309.769 300.845 307.597C301.075 307.214 301.304 306.831 301.541 306.436C303.378 303.372 305.234 300.319 307.092 297.267C307.355 296.836 307.617 296.404 307.887 295.96C309.22 293.77 310.554 291.581 311.889 289.393C312.386 288.577 312.883 287.761 313.379 286.945C313.823 286.218 314.266 285.491 314.723 284.742C315.63 283.206 316.465 281.68 317.231 280.072Z" fill="white" fill-opacity="0.71"/>
<path d="M627.581 295.899C631.013 297.615 633.428 300.024 635.151 303.469C635.315 305.065 635.315 305.065 635.366 306.995C635.404 307.935 635.404 307.935 635.444 308.893C634.728 314.133 631.261 318.337 628.183 322.478C627.379 323.577 626.574 324.675 625.77 325.774C625.375 326.311 624.98 326.848 624.573 327.401C623.033 329.502 621.521 331.623 620.012 333.747C616.291 338.968 612.534 344.162 608.777 349.357C606.529 352.467 604.282 355.578 602.036 358.69C600.166 361.28 598.294 363.87 596.419 366.457C592.797 371.46 589.196 376.474 585.648 381.529C582.313 386.279 578.885 390.955 575.43 395.618C572.449 399.65 569.538 403.726 566.658 407.831C563.086 412.917 559.442 417.95 555.795 422.982C554.588 424.651 553.384 426.322 552.182 427.995C551.578 428.833 551.578 428.833 550.963 429.688C550.195 430.755 549.427 431.823 548.661 432.891C546.816 435.451 544.941 437.965 542.94 440.408C540.568 439.376 538.933 437.997 537.048 436.236C534.613 434.001 532.14 431.858 529.565 429.785C526.947 427.668 524.429 425.484 521.952 423.205C518.289 419.835 514.471 416.694 510.598 413.571C509.217 412.429 507.842 411.281 506.469 410.13C506.854 407.456 508.041 406.239 509.927 404.362C510.81 403.476 510.81 403.476 511.71 402.573C512.352 401.94 512.993 401.307 513.654 400.655C514.319 399.992 514.984 399.328 515.648 398.665C517.043 397.273 518.442 395.884 519.843 394.498C521.625 392.735 523.401 390.967 525.176 389.196C526.881 387.494 528.59 385.795 530.299 384.096C530.93 383.468 531.562 382.839 532.213 382.191C532.816 381.594 533.42 380.997 534.042 380.382C534.565 379.863 535.089 379.344 535.628 378.81C537.037 377.476 538.462 376.21 539.933 374.949C543.595 371.763 546.989 368.314 550.407 364.872C551.142 364.134 551.878 363.397 552.613 362.66C554.186 361.082 555.758 359.504 557.329 357.924C559.814 355.427 562.302 352.932 564.791 350.438C571.863 343.349 578.931 336.257 585.996 329.161C589.906 325.234 593.818 321.31 597.733 317.388C600.207 314.91 602.679 312.428 605.147 309.943C606.681 308.401 608.218 306.862 609.756 305.324C610.468 304.61 611.18 303.895 611.89 303.178C612.859 302.201 613.832 301.228 614.806 300.256C615.349 299.71 615.893 299.165 616.453 298.603C619.87 295.569 623.149 295.331 627.581 295.899Z" fill="white" fill-opacity="0.63"/>
<path d="M247.042 478.255C250.652 479.08 251.978 480.25 253.982 483.33C254.465 484.065 254.949 484.799 255.447 485.556C255.691 485.939 255.935 486.322 256.186 486.716C256.936 487.892 257.7 489.058 258.468 490.222C262.181 495.925 262.181 495.925 262.181 497.523C262.635 497.75 263.089 497.977 263.557 498.211C263.557 498.665 263.557 499.12 263.557 499.588C264.464 500.516 265.383 501.432 266.309 502.34C267.03 503.318 267.723 504.317 268.388 505.334C268.774 505.92 269.16 506.506 269.558 507.109C269.967 507.738 270.377 508.367 270.798 509.015C271.228 509.668 271.657 510.321 272.099 510.995C273.47 513.083 274.836 515.173 276.201 517.264C277.115 518.658 278.029 520.052 278.943 521.445C280.238 523.42 281.533 525.394 282.826 527.371C283.216 527.968 283.606 528.564 284.008 529.179C284.382 529.752 284.756 530.324 285.141 530.914C285.909 532.078 286.687 533.237 287.474 534.39C287.853 534.946 288.231 535.502 288.622 536.074C288.963 536.569 289.304 537.063 289.655 537.573C290.394 538.811 290.394 538.811 290.394 540.188C290.724 540.486 291.053 540.785 291.393 541.093C293.27 543.135 293.005 545.221 292.937 547.893C291.874 553.711 288.703 558.875 285.964 564.057C285.339 565.273 284.715 566.489 284.092 567.706C279.6 576.443 279.6 576.443 278.696 577.347C279.207 577.517 279.718 577.688 280.244 577.863C282.436 578.86 283.432 579.548 284.889 581.476C285.179 583.566 285.308 585.403 285.303 587.494C285.309 588.078 285.315 588.662 285.321 589.263C285.329 590.496 285.33 591.728 285.324 592.961C285.319 594.843 285.351 596.723 285.386 598.605C285.389 599.805 285.39 601.004 285.389 602.203C285.402 602.764 285.414 603.325 285.427 603.902C285.419 604.43 285.41 604.959 285.401 605.503C285.402 605.964 285.403 606.424 285.404 606.899C284.539 609.276 282.933 610.608 280.76 611.754C278.47 612.243 276.238 612.232 273.903 612.21C273.223 612.217 272.544 612.224 271.843 612.232C269.603 612.25 267.364 612.244 265.124 612.235C263.564 612.239 262.005 612.244 260.445 612.25C257.18 612.258 253.915 612.254 250.649 612.24C246.464 612.225 242.279 612.243 238.094 612.271C234.875 612.289 231.656 612.287 228.437 612.28C226.893 612.279 225.35 612.284 223.807 612.296C221.65 612.309 219.495 612.297 217.339 612.277C216.701 612.287 216.064 612.296 215.407 612.306C211.215 612.23 211.215 612.23 209.404 610.892C206.969 608.148 206.641 605.596 206.721 602.074C206.721 601.554 206.721 601.033 206.721 600.497C206.725 599.402 206.737 598.307 206.757 597.213C206.785 595.542 206.785 593.873 206.78 592.203C206.787 591.135 206.796 590.067 206.807 589C206.807 588.504 206.807 588.008 206.807 587.496C206.878 584.479 207.289 582.474 209.194 580.1C209.875 579.873 210.556 579.645 211.258 579.412C211.925 578.199 211.925 578.199 211.947 576.659C211.361 574.928 211.361 574.928 210.377 573.14C209.851 572.115 209.851 572.115 209.314 571.068C208.934 570.344 208.554 569.62 208.162 568.874C207.398 567.377 206.634 565.878 205.872 564.38C204.86 562.412 203.846 560.445 202.822 558.482C197.223 547.702 197.223 547.702 198.872 542.252C200.789 538.351 203.238 534.776 205.753 531.242C206.125 530.695 206.497 530.147 206.88 529.583C207.818 528.489 207.818 528.489 209.882 527.801C210.906 526.455 211.822 525.13 212.726 523.707C212.999 523.288 213.271 522.869 213.552 522.437C214.427 521.089 215.294 519.736 216.161 518.382C216.729 517.505 217.297 516.628 217.866 515.752C219.001 514 220.13 512.245 221.256 510.487C222.401 508.7 223.563 506.925 224.738 505.158C225.023 504.726 225.308 504.293 225.602 503.847C226.141 503.03 226.685 502.215 227.233 501.403C228.694 499.175 229.391 497.376 229.838 494.771C230.589 493.317 230.589 493.317 231.513 491.9C231.846 491.386 232.179 490.873 232.522 490.343C233.046 489.554 233.046 489.554 233.58 488.749C233.926 488.213 234.273 487.676 234.63 487.123C237.221 483.166 237.221 483.166 238.784 482.384C238.997 481.944 239.21 481.504 239.429 481.051C241.14 477.729 243.712 478.03 247.042 478.255ZM240.16 500.276C236.688 504.824 233.636 509.712 230.526 514.512C229.624 515.899 228.722 517.287 227.819 518.675C227.36 519.383 226.901 520.09 226.427 520.819C224.113 524.382 221.793 527.941 219.473 531.5C219.056 532.141 218.638 532.782 218.208 533.443C217.809 534.056 217.409 534.669 216.997 535.301C216.617 535.891 216.236 536.482 215.844 537.09C215.08 538.239 214.285 539.367 213.46 540.473C211.101 543.658 211.101 543.658 210.516 547.507C211.308 549.977 212.276 552.23 213.495 554.51C213.986 555.46 214.477 556.411 214.968 557.362C215.385 558.163 215.385 558.163 215.811 558.981C217.772 562.79 219.669 566.632 221.58 570.466C222.943 573.191 224.305 575.916 225.709 578.723C238.88 578.723 252.051 578.723 265.621 578.723C269.87 570.271 269.87 570.271 273.922 561.735C275.955 557.313 278.205 553.121 280.723 548.951C281.639 547.141 281.639 547.141 280.996 545.522C279.863 543.2 278.483 541.099 277.027 538.973C276.403 538.05 275.78 537.128 275.157 536.205C274.833 535.729 274.509 535.252 274.176 534.761C272.564 532.381 270.971 529.988 269.376 527.597C268.731 526.63 268.085 525.663 267.44 524.697C267.119 524.216 266.798 523.736 266.468 523.241C265.814 522.262 265.16 521.283 264.505 520.304C263.533 518.85 262.562 517.396 261.592 515.942C261.283 515.479 260.974 515.016 260.656 514.54C258.453 511.228 256.315 507.879 254.228 504.493C253.307 503.134 252.343 502.101 251.17 500.964C251.166 501.449 251.162 501.934 251.158 502.434C251.118 507.011 251.069 511.587 251.008 516.164C250.977 518.516 250.95 520.869 250.932 523.222C250.911 525.928 250.873 528.633 250.834 531.339C250.828 532.604 250.828 532.604 250.821 533.896C250.807 534.681 250.794 535.466 250.78 536.275C250.772 536.965 250.764 537.656 250.757 538.368C250.438 540.483 249.934 541.442 248.418 542.94C244.339 543.45 244.339 543.45 242.437 542.137C241.172 540.366 241.262 539.08 241.239 536.914C241.218 535.695 241.218 535.695 241.198 534.452C241.193 533.574 241.189 532.697 241.184 531.793C241.172 530.895 241.16 529.996 241.147 529.071C241.114 526.685 241.094 524.299 241.076 521.913C241.055 519.478 241.023 517.042 240.992 514.607C240.933 509.83 240.887 505.053 240.848 500.276C240.621 500.276 240.394 500.276 240.16 500.276ZM217.452 589.045C217.452 593.36 217.452 597.675 217.452 602.12C236.073 602.12 254.694 602.12 273.879 602.12C273.879 597.805 273.879 593.491 273.879 589.045C255.258 589.045 236.637 589.045 217.452 589.045Z" fill="#474C4D"/>
<path d="M451.418 219.516C472.083 219.516 492.748 219.516 514.039 219.516C514.039 239.045 514.039 258.574 514.039 278.695C493.374 278.695 472.709 278.695 451.418 278.695C451.418 259.166 451.418 239.637 451.418 219.516Z" fill="white" fill-opacity="0.71"/>
<path d="M482.656 466.267C488.697 470.715 492.686 475.654 494.599 482.986C495.634 495.933 492.087 508.203 483.64 518.208C473.941 528.53 461.222 534.989 447.007 535.511C438.408 535.652 430.693 534.775 422.516 531.93C423.513 529.695 424.778 528.087 426.387 526.253C433.928 516.902 437.125 506.066 438.344 494.298C439.359 484.503 442.137 475.583 449.913 469.052C459.711 461.766 471.993 459.24 482.656 466.267Z" fill="white" fill-opacity="0.8"/>
<path d="M240.16 500.276C240.387 500.276 240.614 500.276 240.848 500.276C240.852 500.78 240.856 501.284 240.86 501.803C240.9 506.552 240.95 511.301 241.01 516.05C241.041 518.491 241.068 520.932 241.087 523.374C241.108 526.181 241.146 528.987 241.184 531.793C241.189 532.671 241.193 533.548 241.198 534.452C241.211 535.265 241.225 536.077 241.239 536.915C241.25 537.99 241.25 537.99 241.262 539.086C241.4 540.886 241.4 540.886 242.437 542.137C244.416 543.503 246.105 543.23 248.418 542.94C250.534 540.848 250.747 539.184 250.78 536.275C250.793 535.49 250.807 534.705 250.821 533.896C250.825 533.052 250.83 532.208 250.834 531.339C250.847 530.472 250.859 529.605 250.872 528.712C250.903 526.414 250.925 524.115 250.943 521.816C250.963 519.468 250.995 517.12 251.026 514.772C251.085 510.17 251.132 505.567 251.17 500.964C253.547 503.256 255.241 505.673 256.933 508.491C259.759 513.104 262.697 517.629 265.707 522.124C266.122 522.744 266.537 523.364 266.965 524.003C267.765 525.196 268.566 526.389 269.367 527.582C271.15 530.238 272.926 532.9 274.685 535.572C275.61 536.942 276.568 538.288 277.545 539.621C278.067 540.347 278.588 541.074 279.126 541.822C279.603 542.466 280.08 543.11 280.572 543.774C281.448 545.693 281.448 545.693 281.056 547.693C279.963 550.058 278.853 552.407 277.664 554.725C277.173 555.692 276.683 556.66 276.193 557.628C275.932 558.141 275.671 558.655 275.402 559.184C273.892 562.164 272.403 565.155 270.911 568.143C270.341 569.285 269.77 570.427 269.199 571.568C268.956 572.053 268.714 572.538 268.464 573.037C267.517 574.933 266.569 576.828 265.621 578.724C252.45 578.724 239.279 578.724 225.709 578.724C223.589 574.484 221.469 570.243 219.349 566.003C219.143 565.591 218.936 565.178 218.724 564.754C218.296 563.897 217.869 563.039 217.442 562.182C216.306 559.899 215.155 557.626 213.971 555.368C213.746 554.935 213.522 554.501 213.291 554.055C212.676 552.869 212.054 551.687 211.432 550.505C210.547 548.391 210.221 547.255 210.57 545.005C211.426 543.299 211.426 543.299 212.645 541.481C213.103 540.79 213.56 540.099 214.032 539.387C214.536 538.644 215.04 537.9 215.559 537.134C216.081 536.354 216.603 535.573 217.124 534.791C218.241 533.119 219.361 531.45 220.484 529.782C222.026 527.485 223.543 525.171 225.053 522.852C226.285 520.96 227.523 519.071 228.762 517.184C229.362 516.266 229.96 515.348 230.556 514.428C231.396 513.133 232.245 511.845 233.096 510.558C233.58 509.817 234.064 509.077 234.563 508.315C236.07 506.421 237.409 505.604 239.472 504.405C240.086 502.274 240.086 502.274 240.16 500.276Z" fill="white" fill-opacity="0.8"/>
<path d="M453.711 208.16C454.417 208.157 455.124 208.153 455.852 208.149C458.181 208.14 460.51 208.152 462.839 208.164C464.461 208.164 466.082 208.163 467.703 208.161C471.098 208.16 474.493 208.169 477.888 208.184C482.24 208.204 486.591 208.202 490.943 208.193C494.29 208.189 497.636 208.194 500.983 208.202C502.588 208.206 504.192 208.206 505.797 208.203C508.039 208.201 510.281 208.212 512.522 208.227C513.186 208.224 513.849 208.221 514.532 208.218C520.361 208.283 520.361 208.283 522.984 210.57C525.606 213.627 525.346 216.824 525.327 220.653C525.331 221.318 525.336 221.983 525.341 222.668C525.353 224.864 525.351 227.059 525.347 229.254C525.35 230.782 525.354 232.31 525.358 233.839C525.364 237.04 525.362 240.242 525.355 243.444C525.348 247.545 525.361 251.646 525.382 255.747C525.394 258.902 525.394 262.058 525.39 265.213C525.39 266.725 525.394 268.237 525.403 269.749C525.413 271.864 525.406 273.978 525.394 276.093C525.4 276.717 525.407 277.34 525.414 277.982C525.37 281.773 524.82 283.942 522.296 286.953C519.879 289.077 517.816 289.788 514.625 289.807C514.044 289.812 513.463 289.817 512.865 289.822C512.23 289.824 511.595 289.826 510.941 289.828C510.271 289.832 509.6 289.837 508.909 289.841C506.687 289.855 504.465 289.863 502.243 289.87C501.105 289.874 501.105 289.874 499.944 289.878C495.927 289.893 491.91 289.902 487.893 289.909C483.746 289.916 479.599 289.94 475.452 289.967C472.261 289.985 469.071 289.991 465.881 289.994C464.352 289.997 462.823 290.005 461.295 290.018C459.153 290.035 457.013 290.034 454.871 290.029C454.242 290.038 453.613 290.047 452.964 290.056C448.886 290.023 446.4 289.515 443.16 286.953C440.328 283.223 440.011 279.445 440.062 274.899C440.059 274.268 440.055 273.637 440.051 272.987C440.043 270.918 440.054 268.849 440.066 266.779C440.066 265.333 440.065 263.887 440.063 262.441C440.062 259.416 440.071 256.392 440.087 253.367C440.106 249.497 440.104 245.627 440.095 241.756C440.091 238.772 440.096 235.788 440.105 232.804C440.108 231.377 440.108 229.95 440.105 228.523C440.103 226.527 440.115 224.531 440.13 222.536C440.126 221.95 440.123 221.365 440.12 220.762C440.166 217.086 440.6 214.46 442.472 211.258C445.917 207.997 449.223 208.115 453.711 208.16ZM451.418 219.516C451.418 239.045 451.418 258.574 451.418 278.696C472.083 278.696 492.747 278.696 514.038 278.696C514.038 259.166 514.038 239.637 514.038 219.516C493.374 219.516 472.709 219.516 451.418 219.516Z" fill="#4B4F50"/>
<path d="M498.9 417.699C500.82 418.588 502.348 419.555 503.937 420.949C504.359 421.317 504.78 421.684 505.214 422.063C505.657 422.454 506.099 422.845 506.555 423.247C507.015 423.65 507.475 424.052 507.95 424.467C510.517 426.718 513.06 428.994 515.587 431.29C517.853 433.347 520.172 435.304 522.554 437.225C526.766 440.63 530.726 444.283 534.683 447.977C531.932 455.4 520.225 460.693 513.477 463.841C503.683 468.09 503.683 468.09 499.429 467.845C497.754 467.02 496.951 465.917 495.803 464.45C492.568 460.627 488.692 458.142 484.449 455.547C485.779 441.546 490.904 429.24 498.9 417.699Z" fill="#FAFEFF" fill-opacity="0.68"/>
<path d="M217.451 589.046C236.072 589.046 254.693 589.046 273.879 589.046C273.879 593.361 273.879 597.675 273.879 602.121C255.258 602.121 236.637 602.121 217.451 602.121C217.451 597.806 217.451 593.491 217.451 589.046Z" fill="white" fill-opacity="0.8"/>
<path d="M233.967 430.774C241.46 430.774 248.954 430.774 256.675 430.774C256.675 438.268 256.675 445.762 256.675 453.482C249.181 453.482 241.688 453.482 233.967 453.482C233.967 445.989 233.967 438.495 233.967 430.774Z" fill="white" fill-opacity="0.59"/>
<path d="M99.7803 121.112C100.468 122.489 100.468 122.489 99.8346 124.655C99.0593 127.423 98.917 129.684 98.9121 132.552C98.9093 133.06 98.9066 133.569 98.9037 134.093C98.8962 135.794 98.8984 137.495 98.9005 139.197C98.8971 140.43 98.893 141.663 98.8884 142.896C98.8776 146.283 98.8752 149.669 98.8742 153.055C98.8717 156.708 98.8613 160.361 98.8518 164.013C98.8365 170.341 98.8261 176.669 98.8192 182.996C98.8092 192.145 98.7916 201.294 98.7722 210.443C98.7409 225.286 98.7157 240.129 98.6943 254.973C98.6736 269.392 98.6499 283.811 98.6224 298.23C98.6207 299.119 98.619 300.007 98.6173 300.923C98.6088 305.382 98.6002 309.84 98.5916 314.299C98.5203 351.289 98.4589 388.279 98.404 425.269C97.9498 425.042 97.4957 424.815 97.0277 424.581C96.9963 386.704 96.972 348.827 96.9575 310.951C96.9557 306.481 96.954 302.011 96.9521 297.542C96.9518 296.652 96.9514 295.762 96.951 294.845C96.9451 280.429 96.9342 266.012 96.9216 251.596C96.9087 236.808 96.901 222.02 96.8983 207.233C96.8964 198.105 96.8904 188.976 96.8792 179.848C96.872 173.593 96.8697 167.337 96.8715 161.081C96.8724 157.47 96.871 153.858 96.8637 150.247C96.857 146.941 96.8566 143.636 96.8614 140.33C96.8619 139.134 96.8602 137.937 96.8559 136.74C96.8504 135.115 96.8533 133.489 96.8584 131.864C96.8576 130.509 96.8576 130.509 96.8568 129.126C97.0415 126.416 97.4877 124.349 98.404 121.8C98.8582 121.573 99.3124 121.346 99.7803 121.112Z" fill="#3D4243"/>
<path d="M351.639 432.15C354.416 433.539 356.21 435.022 357.832 437.656C358.418 441.444 358.308 444.868 356.714 448.365C353.935 451.217 351.486 452.225 347.553 452.493C344.246 452.399 342.559 451.396 340.198 449.15C337.83 446.217 337.577 443.734 337.658 440.045C338.07 436.829 339.726 435.035 342.048 432.925C345.228 431.706 348.28 431.702 351.639 432.15Z" fill="white" fill-opacity="0.59"/>
<path d="M148.638 432.15C151.805 433.39 153.343 435.312 154.831 438.344C155.385 441.733 155.275 444.836 153.713 447.935C151.526 450.755 149.853 451.798 146.323 452.37C143.046 452.599 140.91 452.359 138.316 450.257C135.812 447.735 135.01 445.75 134.617 442.214C135.03 438.223 136.52 435.931 139.434 433.226C142.582 431.768 145.224 431.687 148.638 432.15Z" fill="#FAFEFF" fill-opacity="0.68"/>
<path d="M144.509 136.94C146.405 138.441 147.561 139.604 148.638 141.756C148.943 144.446 148.732 145.71 147.433 148.122C145.239 150.803 144.191 151.275 140.767 151.648C137.87 151.343 136.86 150.736 134.875 148.638C133.705 146.618 133.487 145.469 133.585 143.133C134.279 140.751 135.246 139.423 136.939 137.628C139.329 136.433 141.902 136.525 144.509 136.94Z" fill="#505455"/>
<path d="M203.001 136.939C205.782 138.841 206.971 140.935 207.603 144.208C207.025 147.094 206.107 149.023 203.689 150.702C201.573 151.433 199.72 151.637 197.496 151.39C193.781 149.467 193.781 149.467 192.679 147.261C192.297 144.074 192.241 141.769 193.969 139.004C196.646 136.484 199.447 136.219 203.001 136.939Z" fill="#505556"/>
<path d="M172.722 136.939C174.804 138.134 176.45 139.579 177.539 141.756C177.887 144.77 177.731 146.239 176.206 148.896C174.232 150.977 172.25 151.455 169.435 151.605C166.754 151.228 165.594 149.903 163.776 147.95C162.675 145.746 162.745 143.459 163.088 141.068C165.58 137.165 168.136 136.157 172.722 136.939Z" fill="#4F5455"/>
<path d="M342.692 540.876C346.78 540.876 350.867 540.876 355.079 540.876C355.079 544.964 355.079 549.051 355.079 553.262C350.991 553.262 346.904 553.262 342.692 553.262C342.692 549.175 342.692 545.087 342.692 540.876Z" fill="#323839"/>
<path d="M137.627 540.876C141.715 540.876 145.803 540.876 150.014 540.876C150.014 544.964 150.014 549.051 150.014 553.262C145.926 553.262 141.839 553.262 137.627 553.262C137.627 549.175 137.627 545.087 137.627 540.876Z" fill="white" fill-opacity="0.8"/>
<path d="M206.441 606.937C207.817 608.313 209.194 609.69 210.57 611.066C212.734 611.146 214.883 611.181 217.048 611.188C217.728 611.192 218.408 611.197 219.109 611.201C221.371 611.215 223.633 611.223 225.894 611.23C227.05 611.234 227.05 611.234 228.229 611.238C232.306 611.253 236.382 611.263 240.459 611.269C244.678 611.277 248.896 611.3 253.115 611.328C256.351 611.346 259.588 611.351 262.825 611.354C264.38 611.357 265.936 611.365 267.491 611.378C269.666 611.395 271.84 611.394 274.015 611.389C274.661 611.398 275.306 611.407 275.971 611.416C279.513 611.445 279.513 611.445 282.472 609.669C282.815 609.222 283.159 608.774 283.513 608.313C283.967 608.313 284.421 608.313 284.889 608.313C283.909 610.68 283.017 611.89 280.76 613.13C278.532 613.449 276.317 613.426 274.07 613.419C273.391 613.425 272.713 613.431 272.014 613.437C269.77 613.453 267.526 613.454 265.282 613.453C263.722 613.458 262.163 613.463 260.603 613.469C257.332 613.478 254.061 613.479 250.791 613.475C246.601 613.471 242.411 613.492 238.221 613.52C234.999 613.538 231.777 613.54 228.555 613.537C227.011 613.538 225.466 613.545 223.921 613.557C221.76 613.572 219.6 613.566 217.438 613.554C216.483 613.567 216.483 613.567 215.507 613.581C212.551 613.543 210.475 613.381 208.076 611.555C206.441 609.69 206.441 609.69 206.441 606.937Z" fill="#3B4142"/>
<path d="M368.842 446.601C370.225 446.347 370.225 446.347 371.959 446.353C372.615 446.35 373.272 446.347 373.948 446.344C375.031 446.355 375.031 446.355 376.136 446.367C377.274 446.366 377.274 446.366 378.435 446.366C380.952 446.367 383.469 446.383 385.986 446.399C387.727 446.403 389.469 446.406 391.21 446.408C395.331 446.415 399.452 446.432 403.573 446.452C408.265 446.475 412.956 446.487 417.647 446.497C427.299 446.519 436.95 446.555 446.601 446.601C444.922 448.28 444.497 448.151 442.195 448.16C441.24 448.168 441.24 448.168 440.265 448.177C439.565 448.176 438.864 448.176 438.142 448.175C437.406 448.18 436.669 448.184 435.911 448.189C434.308 448.199 432.706 448.205 431.103 448.208C428.57 448.214 426.038 448.228 423.505 448.244C417.215 448.283 410.924 448.307 404.633 448.332C399.321 448.354 394.008 448.381 388.696 448.415C386.194 448.429 383.693 448.435 381.191 448.44C379.665 448.449 378.139 448.458 376.613 448.468C375.912 448.467 375.211 448.467 374.489 448.466C373.534 448.474 373.534 448.474 372.56 448.483C372.005 448.485 371.449 448.487 370.877 448.489C369.368 448.547 369.368 448.547 368.153 450.042C367.926 449.588 367.699 449.133 367.465 448.666C367.92 447.984 368.374 447.303 368.842 446.601Z" fill="#414647"/>
<path d="M474.815 445.913C474.882 450.147 474.882 450.147 474.815 451.418C473.702 452.532 472.436 452.26 470.898 452.324C469.924 452.367 469.924 452.367 468.929 452.412C467.904 452.452 467.904 452.452 466.858 452.494C466.172 452.523 465.486 452.553 464.779 452.584C463.078 452.657 461.377 452.727 459.676 452.795C460.364 451.418 460.364 451.418 462.428 450.73C464.313 450.682 466.179 450.666 468.062 450.687C468.578 450.69 469.094 450.693 469.626 450.697C470.897 450.705 472.168 450.717 473.439 450.73C473.439 449.822 473.439 448.914 473.439 447.978C464.582 447.978 455.726 447.978 446.601 447.978C446.601 447.523 446.601 447.069 446.601 446.601C456.009 446.178 465.396 445.787 474.815 445.913Z" fill="#3C4243"/>
<path d="M301.404 446.601C310.033 446.601 318.663 446.601 327.553 446.601C327.326 447.055 327.099 447.509 326.865 447.977C320.28 448.204 313.694 448.432 306.909 448.665C310.437 451.263 310.437 451.263 313.97 453.853C314.412 454.181 314.854 454.51 315.309 454.848C315.985 455.345 315.985 455.345 316.674 455.853C318.015 457.005 318.976 458.229 319.984 459.676C317.42 459.267 316.046 458.161 314.092 456.493C310.162 453.253 305.972 450.261 301.404 447.977C301.404 447.523 301.404 447.069 301.404 446.601Z" fill="#3B3F40"/>
<path d="M222.268 458.299C222.723 458.299 223.177 458.299 223.645 458.299C224.337 459.444 225.025 460.591 225.709 461.74C227.935 463.224 228.591 463.297 231.166 463.336C231.855 463.349 232.544 463.363 233.253 463.377C233.995 463.385 234.737 463.393 235.502 463.401C236.262 463.415 237.023 463.428 237.807 463.442C240.24 463.483 242.673 463.515 245.106 463.546C246.754 463.573 248.402 463.6 250.051 463.627C254.094 463.693 258.137 463.752 262.18 463.804C262.18 464.259 262.18 464.713 262.18 465.181C257.343 465.233 252.506 465.269 247.669 465.294C246.024 465.304 244.379 465.319 242.733 465.336C240.367 465.361 238.002 465.373 235.636 465.382C234.901 465.393 234.166 465.404 233.409 465.415C227.051 465.416 227.051 465.416 224.333 463.116C222.693 461.307 222.268 460.785 222.268 458.299Z" fill="#383D3E"/>
<path d="M165.841 446.601C173.789 446.601 181.737 446.601 189.926 446.601C189.014 449.336 187.776 449.796 185.367 451.332C182.239 453.355 179.176 455.42 176.163 457.611C176.163 456.93 176.163 456.249 176.163 455.547C177.489 454.391 178.778 453.377 180.206 452.364C180.588 452.084 180.971 451.804 181.364 451.515C182.805 450.467 184.201 449.464 185.797 448.665C179.212 448.438 172.626 448.211 165.841 447.977C165.841 447.523 165.841 447.069 165.841 446.601Z" fill="#3D4242"/>
<path d="M228.462 496.835C228.916 497.289 229.37 497.743 229.838 498.211C224.563 506.54 219.278 514.862 213.753 523.027C213.381 523.583 213.009 524.139 212.626 524.712C212.283 525.214 211.94 525.717 211.586 526.234C211.14 526.891 211.14 526.891 210.685 527.562C210.42 527.868 210.155 528.174 209.882 528.489C209.428 528.489 208.974 528.489 208.506 528.489C209.514 525.634 210.972 523.268 212.677 520.791C213.287 519.892 213.895 518.992 214.503 518.092C215.024 517.32 215.024 517.32 215.556 516.532C218.083 512.754 220.559 508.942 223.043 505.136C223.578 504.315 224.114 503.495 224.65 502.674C225.921 500.728 227.192 498.782 228.462 496.835Z" fill="#343B3C"/>
<path d="M324.113 481.696C326.99 484.338 328.953 487.099 330.908 490.47C331.204 490.978 331.501 491.486 331.806 492.009C335.767 498.972 338.818 506.233 340.628 514.039C339.947 514.379 339.947 514.379 339.252 514.727C338.984 513.935 338.716 513.143 338.44 512.326C334.762 501.75 330.112 491.437 323.425 482.384C323.652 482.157 323.879 481.93 324.113 481.696Z" fill="#FAFEFF" fill-opacity="0.68"/>
<path d="M174.787 457.611C173.667 460.603 171.335 462.447 169.067 464.579C163.843 469.617 159.726 475.258 155.655 481.244C154.831 482.384 154.831 482.384 153.455 483.761C153.228 483.306 153 482.852 152.766 482.384C157.607 474.826 162.918 468.005 169.239 461.611C169.63 461.214 170.021 460.816 170.423 460.407C173.241 457.611 173.241 457.611 174.787 457.611Z" fill="#33393D"/>
<path d="M159.648 559.456C160.102 559.456 160.556 559.456 161.024 559.456C160.049 561.811 159.125 563.013 156.895 564.273C154.881 564.474 153.017 564.562 151.003 564.547C150.433 564.549 149.863 564.551 149.276 564.553C148.073 564.554 146.87 564.55 145.667 564.542C143.827 564.531 141.988 564.542 140.149 564.555C138.979 564.553 137.808 564.551 136.638 564.547C135.815 564.553 135.815 564.553 134.974 564.559C132.011 564.522 130.131 564.361 127.994 562.208C128.448 561.981 128.902 561.754 129.37 561.52C129.824 561.747 130.278 561.974 130.746 562.208C132.671 562.301 134.578 562.354 136.504 562.372C137.076 562.378 137.648 562.383 138.237 562.389C139.448 562.398 140.66 562.406 141.871 562.411C143.723 562.423 145.574 562.453 147.425 562.484C148.602 562.491 149.778 562.496 150.955 562.501C151.508 562.513 152.062 562.525 152.632 562.538C155.188 562.528 156.562 562.488 158.557 560.814C158.917 560.365 159.277 559.917 159.648 559.456Z" fill="#303636"/>
<path d="M423.204 509.222C423.659 509.676 424.113 510.13 424.581 510.598C420.505 519.201 415.921 523.53 407.377 527.801C405.785 529.22 405.785 529.22 404.625 530.554C404.773 528.957 404.773 528.957 405.313 527.113C406.692 526.043 406.692 526.043 408.453 525.135C415.359 521.263 419.764 516.345 423.204 509.222Z" fill="#2E3333"/>
<path d="M211.259 578.035C211.259 578.489 211.259 578.943 211.259 579.411C210.819 579.738 210.379 580.064 209.925 580.401C208.311 581.413 208.311 581.413 207.818 583.54C207.713 585.268 207.641 586.98 207.6 588.709C207.586 589.21 207.571 589.712 207.557 590.228C207.512 591.826 207.471 593.425 207.431 595.024C207.401 596.108 207.371 597.193 207.341 598.277C207.267 600.934 207.197 603.592 207.13 606.249C206.676 606.022 206.221 605.795 205.753 605.561C205.702 602.5 205.665 599.44 205.64 596.379C205.63 595.339 205.616 594.3 205.598 593.26C205.572 591.76 205.561 590.26 205.552 588.76C205.541 587.86 205.53 586.959 205.519 586.03C205.773 583.328 206.378 581.699 207.818 579.411C209.882 578.035 209.882 578.035 211.259 578.035Z" fill="#282C2E"/>
<path d="M446.601 457.611C445.831 459.922 445.319 460.286 443.462 461.74C438.397 466.041 434.873 471.556 432.15 477.567C431.696 477.567 431.242 477.567 430.774 477.567C431.955 469.988 437.992 463.637 443.609 458.789C445.225 457.611 445.225 457.611 446.601 457.611Z" fill="#2D3337"/>
<path d="M594.551 303.469C594.551 305.533 594.551 305.533 593.467 306.668C592.988 307.06 592.508 307.452 592.013 307.856C591.252 308.496 591.252 308.496 590.476 309.149C590.004 309.545 589.532 309.942 589.046 310.35C585.627 313.593 582.545 317.157 579.412 320.672C578.958 320.445 578.503 320.218 578.035 319.984C578.595 318.651 578.595 318.651 579.412 317.231C580.093 317.004 580.774 316.777 581.476 316.543C581.945 315.631 582.401 314.712 582.852 313.791C583.849 312.668 584.884 311.58 585.949 310.522C586.495 309.972 587.042 309.422 587.605 308.856C589.046 307.598 589.046 307.598 590.422 307.598C590.621 307.172 590.819 306.746 591.024 306.307C592.527 303.469 592.527 303.469 594.551 303.469Z" fill="#333436"/>
<path d="M127.306 537.436C127.332 538.378 127.332 538.378 127.358 539.339C127.424 541.68 127.492 544.02 127.562 546.361C127.592 547.372 127.62 548.383 127.648 549.394C127.688 550.851 127.732 552.308 127.776 553.765C127.801 554.641 127.827 555.517 127.853 556.419C127.973 558.426 128.224 560.256 128.682 562.208C128.228 562.208 127.774 562.208 127.306 562.208C125.948 559.369 125.76 557.072 125.771 553.94C125.771 553.488 125.771 553.037 125.772 552.571C125.774 551.623 125.779 550.674 125.788 549.726C125.8 548.269 125.802 546.812 125.802 545.355C125.831 537.436 125.831 537.436 127.306 537.436Z" fill="#313738"/>
<path d="M165.153 447.289C165.607 447.743 166.061 448.197 166.529 448.665C163.107 455.833 159.443 460.251 152.065 463.372C150.702 463.804 150.702 463.804 148.638 463.804C148.638 463.35 148.638 462.896 148.638 462.428C149.178 462.236 149.718 462.043 150.275 461.845C157.717 459.005 161.229 455.833 164.57 448.625C164.762 448.184 164.955 447.743 165.153 447.289Z" fill="#F0FAFC" fill-opacity="0.51"/>
<path d="M617.948 284.889C617.948 285.343 617.948 285.797 617.948 286.265C617.564 286.416 617.181 286.567 616.786 286.722C610.437 289.36 606.056 293.163 601.352 298.13C600.056 299.34 600.056 299.34 598.68 299.34C599.774 296.493 601.848 294.363 604.185 292.458C604.639 292.458 605.093 292.458 605.561 292.458C605.788 291.777 606.015 291.096 606.249 290.394C607.55 289.337 607.55 289.337 609.174 288.286C609.702 287.938 610.231 287.589 610.776 287.23C613.202 285.825 615.122 284.889 617.948 284.889Z" fill="#303233"/>
<path d="M542.252 456.923C539.925 462.168 534.563 465.135 529.952 468.235C529.493 468.544 529.034 468.853 528.562 469.172C525.222 471.374 525.222 471.374 523.673 471.374C524.543 468.763 525.379 468.529 527.715 467.159C531.362 464.923 538.327 456.923 542.252 456.923Z" fill="#353C3D"/>
<path d="M239.472 500.964C239.699 500.964 239.926 500.964 240.16 500.964C240.16 513.454 240.16 525.943 240.16 538.811C239.933 538.811 239.706 538.811 239.472 538.811C239.245 527.684 239.018 516.557 238.784 505.093C237.762 505.774 237.762 505.774 236.719 506.469C237.493 504.424 238.249 502.798 239.472 500.964Z" fill="#2D3233"/>
<path d="M151.39 516.791C151.844 516.791 152.299 516.791 152.767 516.791C152.312 520.879 151.858 524.966 151.39 529.177C153.072 529.476 153.072 529.476 154.788 529.78C156.699 530.118 156.699 530.118 158.272 530.554C158.499 531.008 158.726 531.462 158.96 531.93C156.008 531.703 153.056 531.476 150.014 531.242C149.896 526.119 150.071 521.739 151.39 516.791Z" fill="#2C3234"/>
</svg>
