<svg width="21" height="20" viewBox="0 0 21 20" fill="none" xmlns="http://www.w3.org/2000/svg">
<path d="M10.6679 0.250977C9.38749 0.250977 8.11964 0.509429 6.93671 1.01158C5.75379 1.51373 4.67896 2.24974 3.77359 3.17758C1.94511 5.05146 0.917877 7.59298 0.917877 10.243C0.917877 14.6595 3.71613 18.4066 7.58688 19.7355C8.07438 19.8154 8.23038 19.5057 8.23038 19.2359V17.5472C5.52963 18.1468 4.95438 16.2083 4.95438 16.2083C4.50588 15.0492 3.87213 14.7395 3.87213 14.7395C2.98488 14.12 3.94038 14.1399 3.94038 14.1399C4.91538 14.2099 5.43213 15.1691 5.43213 15.1691C6.28038 16.6879 7.71363 16.2383 8.26938 15.9985C8.35713 15.349 8.61063 14.9093 8.88363 14.6595C6.71913 14.4097 4.44738 13.5504 4.44738 9.74344C4.44738 8.63432 4.81788 7.74502 5.45163 7.03559C5.35413 6.78579 5.01288 5.74661 5.54913 4.39768C5.54913 4.39768 6.36813 4.1279 8.23038 5.41687C9.00063 5.19705 9.83913 5.08714 10.6679 5.08714C11.4966 5.08714 12.3351 5.19705 13.1054 5.41687C14.9676 4.1279 15.7866 4.39768 15.7866 4.39768C16.3229 5.74661 15.9816 6.78579 15.8841 7.03559C16.5179 7.74502 16.8884 8.63432 16.8884 9.74344C16.8884 13.5604 14.6069 14.3997 12.4326 14.6495C12.7836 14.9593 13.1054 15.5688 13.1054 16.4981V19.2359C13.1054 19.5057 13.2614 19.8254 13.7586 19.7355C17.6294 18.3966 20.4179 14.6595 20.4179 10.243C20.4179 8.93086 20.1657 7.63154 19.6757 6.41924C19.1857 5.20695 18.4675 4.10543 17.5622 3.17758C16.6568 2.24974 15.582 1.51373 14.399 1.01158C13.2161 0.509429 11.9483 0.250977 10.6679 0.250977Z" fill="white"/>
</svg>
