<svg width="10" height="10" viewBox="0 0 10 10" fill="none" xmlns="http://www.w3.org/2000/svg">
<path d="M7.65625 0H2.34375C1.04933 0 0 1.04933 0 2.34375V7.65625C0 8.95067 1.04933 10 2.34375 10H7.65625C8.95067 10 10 8.95067 10 7.65625V2.34375C10 1.04933 8.95067 0 7.65625 0Z" fill="url(#paint0_radial_2021_146)"/>
<path d="M7.65625 0H2.34375C1.04933 0 0 1.04933 0 2.34375V7.65625C0 8.95067 1.04933 10 2.34375 10H7.65625C8.95067 10 10 8.95067 10 7.65625V2.34375C10 1.04933 8.95067 0 7.65625 0Z" fill="url(#paint1_radial_2021_146)"/>
<path d="M5.00035 1.09375C3.93949 1.09375 3.80633 1.0984 3.38969 1.11734C2.97383 1.13641 2.68996 1.20223 2.4416 1.29883C2.18465 1.39859 1.96672 1.53207 1.74961 1.74926C1.5323 1.96641 1.39883 2.18434 1.29875 2.44117C1.20188 2.68961 1.13598 2.97359 1.11727 3.38926C1.09863 3.80594 1.09375 3.93914 1.09375 5.00004C1.09375 6.06094 1.09844 6.19367 1.11734 6.61031C1.13648 7.02617 1.2023 7.31004 1.29883 7.5584C1.39867 7.81535 1.53215 8.03328 1.74934 8.25039C1.96641 8.4677 2.18434 8.60148 2.44109 8.70125C2.68965 8.79785 2.97355 8.86367 3.38934 8.88273C3.80602 8.90168 3.93906 8.90633 4.99988 8.90633C6.06086 8.90633 6.19359 8.90168 6.61023 8.88273C7.02609 8.86367 7.31027 8.79785 7.55883 8.70125C7.81566 8.60148 8.03328 8.4677 8.25031 8.25039C8.46762 8.03328 8.60105 7.81535 8.70117 7.55852C8.79719 7.31004 8.86312 7.02609 8.88266 6.61039C8.90137 6.19375 8.90625 6.06094 8.90625 5.00004C8.90625 3.93914 8.90137 3.80602 8.88266 3.38934C8.86312 2.97348 8.79719 2.68965 8.70117 2.44129C8.60105 2.18434 8.46762 1.96641 8.25031 1.74926C8.03305 1.53199 7.81574 1.39852 7.55859 1.29887C7.30957 1.20223 7.02555 1.13637 6.60969 1.11734C6.19301 1.0984 6.06035 1.09375 4.99914 1.09375H5.00035ZM4.64992 1.7977C4.75395 1.79754 4.87 1.7977 5.00035 1.7977C6.04336 1.7977 6.16695 1.80145 6.57883 1.82016C6.95969 1.83758 7.16641 1.90121 7.3041 1.95469C7.48641 2.02547 7.61637 2.11012 7.75301 2.24688C7.88973 2.38359 7.97434 2.51379 8.04531 2.69609C8.09879 2.83359 8.1625 3.04031 8.17984 3.42117C8.19855 3.83297 8.20262 3.95664 8.20262 4.99914C8.20262 6.04164 8.19855 6.16535 8.17984 6.57711C8.16242 6.95797 8.09879 7.16469 8.04531 7.30223C7.97453 7.48453 7.88973 7.61434 7.75301 7.75098C7.61629 7.8877 7.48648 7.9723 7.3041 8.04313C7.16656 8.09684 6.95969 8.16031 6.57883 8.17773C6.16703 8.19645 6.04336 8.20051 5.00035 8.20051C3.9573 8.20051 3.83367 8.19645 3.42191 8.17773C3.04105 8.16016 2.83434 8.09652 2.69652 8.04305C2.51426 7.97223 2.38402 7.88762 2.2473 7.7509C2.11059 7.61418 2.02598 7.4843 1.955 7.30191C1.90152 7.16438 1.83781 6.95766 1.82047 6.5768C1.80176 6.165 1.79801 6.04133 1.79801 4.99816C1.79801 3.955 1.80176 3.83199 1.82047 3.4202C1.83789 3.03934 1.90152 2.83262 1.955 2.69492C2.02582 2.51262 2.11059 2.38242 2.24734 2.2457C2.3841 2.10898 2.51426 2.02434 2.69656 1.9534C2.83426 1.89969 3.04105 1.83621 3.42191 1.81871C3.78227 1.80242 3.92191 1.79754 4.64992 1.79672V1.7977ZM7.08551 2.44629C6.82672 2.44629 6.61676 2.65605 6.61676 2.91488C6.61676 3.17367 6.82672 3.38363 7.08551 3.38363C7.3443 3.38363 7.55426 3.17367 7.55426 2.91488C7.55426 2.65609 7.3443 2.44613 7.08551 2.44613V2.44629ZM5.00035 2.99398C3.89254 2.99398 2.99434 3.89219 2.99434 5.00004C2.99434 6.10789 3.89254 7.00566 5.00035 7.00566C6.1082 7.00566 7.00609 6.10789 7.00609 5.00004C7.00609 3.89223 6.10813 2.99398 5.00027 2.99398H5.00035ZM5.00035 3.69793C5.71945 3.69793 6.30246 4.28086 6.30246 5.00004C6.30246 5.71914 5.71945 6.30215 5.00035 6.30215C4.28125 6.30215 3.69828 5.71914 3.69828 5.00004C3.69828 4.28086 4.28121 3.69793 5.00035 3.69793Z" fill="white"/>
<defs>
<radialGradient id="paint0_radial_2021_146" cx="0" cy="0" r="1" gradientUnits="userSpaceOnUse" gradientTransform="translate(2.65625 10.7702) rotate(-90) scale(9.91074 9.21777)">
<stop stop-color="#FFDD55"/>
<stop offset="0.1" stop-color="#FFDD55"/>
<stop offset="0.5" stop-color="#FF543E"/>
<stop offset="1" stop-color="#C837AB"/>
</radialGradient>
<radialGradient id="paint1_radial_2021_146" cx="0" cy="0" r="1" gradientUnits="userSpaceOnUse" gradientTransform="translate(-1.67504 0.720351) rotate(78.681) scale(4.43016 18.2612)">
<stop stop-color="#3771C8"/>
<stop offset="0.128" stop-color="#3771C8"/>
<stop offset="1" stop-color="#6600FF" stop-opacity="0"/>
</radialGradient>
</defs>
</svg>
