<svg width="25" height="24" viewBox="0 0 25 24" fill="none" xmlns="http://www.w3.org/2000/svg">
<path d="M18.778 0.000976562H5.72445C4.27286 0.000976563 2.88072 0.577619 1.85429 1.60405C0.827863 2.63048 0.251221 4.02262 0.251221 5.47421V18.5277C0.251221 19.9793 0.827863 21.3715 1.85429 22.3979C2.88072 23.4243 4.27286 24.001 5.72445 24.001H18.778C20.2296 24.001 21.6217 23.4243 22.6481 22.3979C23.6746 21.3715 24.2512 19.9793 24.2512 18.5277V5.47421C24.2512 4.02262 23.6746 2.63048 22.6481 1.60405C21.6217 0.577619 20.2296 0.000976563 18.778 0.000976562ZM8.36568 19.3757C8.36954 19.4427 8.35966 19.5098 8.33666 19.5728C8.31365 19.6359 8.278 19.6936 8.23189 19.7423C8.18579 19.7911 8.1302 19.8299 8.06855 19.8564C8.0069 19.8829 7.94048 19.8965 7.87337 19.8964H5.68261C5.55049 19.8931 5.42491 19.8382 5.33286 19.7434C5.2408 19.6486 5.18961 19.5214 5.1903 19.3893V10.2779C5.18849 10.2121 5.19988 10.1466 5.22381 10.0853C5.24774 10.024 5.28372 9.96816 5.32962 9.921C5.37551 9.87384 5.4304 9.83636 5.49103 9.81078C5.55166 9.7852 5.6168 9.77203 5.68261 9.77205H7.87337C7.93918 9.77203 8.00432 9.7852 8.06495 9.81078C8.12558 9.83636 8.18047 9.87384 8.22636 9.921C8.27226 9.96816 8.30824 10.024 8.33217 10.0853C8.3561 10.1466 8.36749 10.2121 8.36568 10.2779V19.3757ZM6.73737 7.85575C6.50019 7.85397 6.26567 7.80549 6.04722 7.71308C5.82877 7.62067 5.63066 7.48614 5.4642 7.31716C5.29774 7.14819 5.16619 6.94808 5.07706 6.72827C4.98794 6.50846 4.94298 6.27324 4.94476 6.03605C4.94654 5.79887 4.99502 5.56435 5.08743 5.3459C5.17984 5.12745 5.31437 4.92933 5.48334 4.76288C5.65232 4.59642 5.85242 4.46487 6.07224 4.37574C6.29205 4.28662 6.52726 4.24166 6.76445 4.24344C7.23524 4.25875 7.68141 4.45744 8.00776 4.79711C8.3341 5.13678 8.51478 5.59054 8.51125 6.06157C8.50772 6.53259 8.32025 6.98359 7.98884 7.31833C7.65744 7.65306 7.20834 7.84504 6.73737 7.85328M20.0506 19.361C20.05 19.4853 20.0012 19.6046 19.9144 19.6937C19.8276 19.7828 19.7097 19.8347 19.5854 19.8385H17.2728C17.1482 19.8347 17.0301 19.7826 16.9433 19.6933C16.8565 19.6039 16.8078 19.4843 16.8075 19.3597V15.1456C16.8075 14.5167 16.9995 12.4096 15.1386 12.4096C13.6875 12.4096 13.4008 13.8865 13.3454 14.5437V19.4557C13.3454 19.5805 13.2969 19.7004 13.21 19.79C13.1232 19.8796 13.0049 19.9319 12.8801 19.9357H10.6365C10.5094 19.9354 10.3876 19.8847 10.2978 19.7947C10.2081 19.7047 10.1577 19.5828 10.1577 19.4557V10.2336C10.1615 10.1089 10.2138 9.99054 10.3034 9.90369C10.393 9.81684 10.5129 9.7683 10.6377 9.76836H12.8801C13.0049 9.7683 13.1248 9.81684 13.2144 9.90369C13.304 9.99054 13.3563 10.1089 13.3601 10.2336V11.0274C13.6876 10.5482 14.1396 10.1675 14.6675 9.92627C15.1955 9.68508 15.7792 9.59261 16.3558 9.65882C20.0912 9.65882 20.0777 13.1481 20.0777 15.1321L20.0506 19.361Z" fill="white"/>
</svg>
