<svg width="12" height="12" viewBox="0 0 12 12" fill="none" xmlns="http://www.w3.org/2000/svg">
<path d="M10.5 9.25C10.5 9.9405 9.9405 10.5 9.25 10.5H2.75C2.05975 10.5 1.5 9.9405 1.5 9.25V2.75C1.5 2.0595 2.05975 1.5 2.75 1.5H9.25C9.9405 1.5 10.5 2.0595 10.5 2.75V9.25Z" fill="#0078D4"/>
<path opacity="0.05" d="M7.5 9.25V6.72525C7.5 6.303 7.29525 6.05075 6.952 6.05075C6.74825 6.05075 6.5985 6.1655 6.50725 6.39175C6.503 6.40775 6.497 6.473 6.4995 6.67025L6.5 9.25H4.75V4.5H6.5V4.76525C6.7555 4.589 7.06875 4.5 7.4345 4.5C8.57125 4.5 9.24975 5.27325 9.24975 6.5685L9.25 9.25H7.5ZM2.75 9.25V4.5H3.61425C3.1135 4.5 2.75 4.132 2.75 3.62475C2.75 3.118 3.1195 2.75 3.6285 2.75C4.1315 2.75 4.48975 3.10775 4.5 3.61975C4.5 4.13075 4.13025 4.5 3.62125 4.5H4.5V9.25H2.75Z" fill="black"/>
<path opacity="0.07" d="M7.625 9.125V6.72525C7.625 6.232 7.36725 5.92575 6.952 5.92575C6.62825 5.92575 6.46825 6.15375 6.39125 6.345C6.37075 6.39475 6.3735 6.59225 6.3745 6.6765L6.375 9.125H4.875V4.625H6.375V5.0345C6.57375 4.82875 6.89375 4.625 7.4345 4.625C8.49275 4.625 9.12475 5.3515 9.12475 6.5685L9.125 9.125H7.625ZM2.875 9.125V4.625H4.375V9.125H2.875ZM3.61425 4.375C3.186 4.375 2.875 4.0595 2.875 3.62475C2.875 3.19025 3.192 2.875 3.6285 2.875C4.0595 2.875 4.36625 3.18225 4.375 3.62225C4.375 4.0595 4.058 4.375 3.62125 4.375H3.61425Z" fill="black"/>
<path d="M3 4.75H4.25V9H3V4.75ZM3.62125 4.25H3.61425C3.24125 4.25 3 3.972 3 3.62475C3 3.27 3.24875 3 3.6285 3C4.00875 3 4.243 3.27 4.25 3.62475C4.25 3.97175 4.00875 4.25 3.62125 4.25ZM9 9H7.75V6.72525C7.75 6.17575 7.44375 5.80075 6.952 5.80075C6.57675 5.80075 6.37375 6.05375 6.27525 6.29825C6.23925 6.38575 6.25 6.62775 6.25 6.75V9H5V4.75H6.25V5.404C6.43025 5.125 6.7125 4.75 7.4345 4.75C8.329 4.75 8.99975 5.3125 8.99975 6.5685L9 9Z" fill="white"/>
</svg>
