<svg width="22" height="21" viewBox="0 0 22 21" fill="none" xmlns="http://www.w3.org/2000/svg">
<path d="M8 2.625C6.96584 2.625 5.94181 2.83375 4.98637 3.23933C4.03093 3.64491 3.1628 4.23938 2.43153 4.9888C0.954685 6.50231 0.125 8.55508 0.125 10.6955C0.125 14.2627 2.38513 17.2891 5.5115 18.3625C5.90525 18.4271 6.03125 18.1769 6.03125 17.959V16.5951C3.84988 17.0793 3.38525 15.5136 3.38525 15.5136C3.023 14.5774 2.51113 14.3272 2.51113 14.3272C1.7945 13.8269 2.56625 13.843 2.56625 13.843C3.35375 13.8995 3.77113 14.6743 3.77113 14.6743C4.45625 15.901 5.61387 15.5378 6.06275 15.3441C6.13363 14.8195 6.33838 14.4644 6.55888 14.2627C4.81063 14.0609 2.97575 13.3669 2.97575 10.292C2.97575 9.39616 3.275 8.67788 3.78688 8.10488C3.70813 7.90312 3.4325 7.06378 3.86563 5.97426C3.86563 5.97426 4.52713 5.75636 6.03125 6.79745C6.65338 6.6199 7.33063 6.53113 8 6.53113C8.66938 6.53113 9.34663 6.6199 9.96875 6.79745C11.4729 5.75636 12.1344 5.97426 12.1344 5.97426C12.5675 7.06378 12.2919 7.90312 12.2131 8.10488C12.725 8.67788 13.0243 9.39616 13.0243 10.292C13.0243 13.3749 11.1815 14.0528 9.42538 14.2546C9.70888 14.5048 9.96875 14.9971 9.96875 15.7477V17.959C9.96875 18.1769 10.0948 18.4351 10.4964 18.3625C13.6228 17.2811 15.875 14.2627 15.875 10.6955C15.875 9.63568 15.6713 8.58622 15.2756 7.60706C14.8798 6.6279 14.2997 5.73821 13.5685 4.9888C12.8372 4.23938 11.9691 3.64491 11.0136 3.23933C10.0582 2.83375 9.03416 2.625 8 2.625Z" fill="white"/>
</svg>
